<?xml version="1.0" encoding="utf-8"?>
<!-- Generator: Adobe Illustrator 25.3.1, SVG Export Plug-In . SVG Version: 6.00 Build 0)  -->
<svg version="1.1" id="Layer_1" xmlns="http://www.w3.org/2000/svg" xmlns:xlink="http://www.w3.org/1999/xlink" x="0px" y="0px"
	 viewBox="0 0 1196 410" style="enable-background:new 0 0 1196 410;" xml:space="preserve">
<style type="text/css">
	.st0{fill:#00297A;}
</style>
<g id="Layer_1_1_">
</g>
<g id="Logo">
	<g>
		<path class="st0" d="M154.496,105.5c-82.2,0-149.2,67-149.2,149.2s67,149.2,149.2,149.2s149.2-67,149.2-149.2
			S236.696,105.5,154.496,105.5z M154.496,329.1c-41.6,0-74.2-33.6-74.2-74.2s33.6-74.2,74.2-74.2s74.2,33.6,74.2,74.2
			S195.296,329.1,154.496,329.1z"/>
		<path class="st0" d="M416.496,305.1c0-12,14.4-17.6,22.4-9.6c37.6,38.4,99,103,99,103.8c0.8,0.8,1.6,2.4,5.6,3.2
			c1.6,0.8,4,0.8,6.4,0.8h67c12,0,16-14.4,10.4-20.8l-111.8-115l-5.6-6.4c-12.8-15.2-11.2-20.8,3.2-36.8l88.6-98.2
			c5.6-7.2,2.4-20.8-10.4-20.8h-60.6c-2.4,0-4,0-5.6,0.8c-4,0.8-4.8,2.4-5.6,3.2c0,0-49.6,52.6-79,85.4c-8,8.8-23.2,3.2-23.2-8.8
			v-169c0-8.8-7.2-12-12.8-12h-49.6c-8.8,0-12.8,5.6-12.8,11.2v375.2c0,8.8,7.2,11.2,12.8,11.2h48.8c8,0,12.8-5.6,12.8-11.2v-4
			L416.496,305.1L416.496,305.1z"/>
		<path class="st0" d="M822.696,389.7l-5.6-50.2c-0.8-7.2-7.2-11.2-13.6-10.4c-4,0.8-8,0.8-11.2,0.8c-40,0-71.8-31.2-74.2-70.2
			c0-1.6,0-2.4,0-4v-60.8c0-8,5.6-14.4,13.6-14.4h67c4.8,0,12-4,12-12.8v-47c0-8.8-5.6-14.4-11.2-14.4h-67c-8,0-14.4-5.6-14.4-13.6
			v-75c0-4.8-3.2-12-12.8-12h-49.4c-6.4,0-12,4-12,11.2c0,0,0,241.2,0,242.8c2.4,80.6,67.8,145.4,149.2,145.4c6.4,0,13.6-0.8,20-1.6
			C818.696,402.5,823.496,396.1,822.696,389.7z"/>
		<path class="st0" d="M1182.096,327.5c-42.4,0-48.8-15.2-48.8-71.8c0,0,0,0,0-0.8V119.1c0-4.8-3.2-12.8-12.8-12.8h-49.6
			c-6.4,0-12.8,4.8-12.8,12.8v6.4c-21.6-12-47.2-19.2-73.4-19.2c-82.2,0-149.2,67-149.2,149.2s67,149.2,149.2,149.2
			c36.8,0,71-13.6,96.6-36c14.4,21.6,36.8,35.2,71.8,36c6.4,0,37.6,0.8,37.6-13.6v-52.6
			C1190.896,332.3,1186.896,327.5,1182.096,327.5z M984.096,329.1c-41.6,0-74.2-33.6-74.2-74.2c0-41.6,33.6-74.2,74.2-74.2
			c41.6,0,74.2,33.6,74.2,74.2C1059.096,295.5,1025.496,329.1,984.096,329.1z"/>
	</g>
</g>
</svg>
