<svg width="18" height="18" viewBox="0 0 18 18" fill="none" xmlns="http://www.w3.org/2000/svg">
<path fill-rule="evenodd" clip-rule="evenodd" d="M11.0283 12.5232C9.99022 13.2629 8.7201 13.6981 7.34837 13.6981C3.84226 13.6981 1 10.8555 1 7.34903C1 3.84256 3.84226 1 7.34837 1C10.8545 1 13.6967 3.84256 13.6967 7.34903C13.6967 8.7209 13.2617 9.99115 12.522 11.0293L16.6931 15.2008C17.104 15.6118 17.1006 16.2694 16.693 16.6771L16.6755 16.6946C16.2688 17.1012 15.6069 17.1023 15.1994 16.6947L11.0283 12.5232ZM7.34837 12.2042C10.0295 12.2042 12.203 10.0304 12.203 7.34903C12.203 4.66761 10.0295 2.49389 7.34837 2.49389C4.66723 2.49389 2.49373 4.66761 2.49373 7.34903C2.49373 10.0304 4.66723 12.2042 7.34837 12.2042Z" fill="#46545E"/>
</svg>
