<svg xmlns="http://www.w3.org/2000/svg" width="24" height="24" fill="none" viewBox="0 0 24 24">
  <path fill="#000" d="M16.401 0h.171c.137 1.693-.509 2.957-1.294 3.873-.77.91-1.825 1.792-3.532 1.658-.114-1.669.534-2.84 1.318-3.753C13.79.926 15.124.168 16.4 0zm5.165 17.617v.047c-.48 1.452-1.163 2.697-1.998 3.852-.762 1.049-1.696 2.46-3.363 2.46-1.44 0-2.397-.927-3.874-.952C10.77 23 9.911 23.8 8.482 24h-.486c-1.05-.152-1.895-.982-2.512-1.73C3.666 20.058 2.261 17.203 2 13.548v-1.074C2.11 9.858 3.382 7.73 5.071 6.7c.892-.548 2.117-1.015 3.482-.807.585.091 1.182.291 1.706.49.497.19 1.117.528 1.705.51.399-.011.795-.219 1.197-.365 1.176-.425 2.329-.912 3.848-.683 1.827.276 3.123 1.087 3.924 2.34-1.545.983-2.767 2.464-2.558 4.995.186 2.298 1.522 3.643 3.191 4.436z"/>
</svg>
