<svg width="72" height="72" viewBox="0 0 72 72" fill="none" xmlns="http://www.w3.org/2000/svg">
<rect width="72" height="72" fill="white"/>
<path d="M53.6838 45.3495L48.1044 50.9277C47.551 51.4807 46.6543 51.4809 46.101 50.9277L43.0117 47.8383L43.68 47.1701L44.3482 46.5033L47.1026 49.2578L52.3474 44.0131L53.6838 45.3495Z" fill="#22307C"/>
<path d="M33.4167 31.5833C37.7199 31.5833 41.2083 28.0949 41.2083 23.7917C41.2083 19.4884 37.7199 16 33.4167 16C29.1134 16 25.625 19.4884 25.625 23.7917C25.625 28.0949 29.1134 31.5833 33.4167 31.5833Z" stroke="#22307C"/>
<path d="M48.0564 55.824C52.8812 55.824 56.7925 51.9127 56.7925 47.0879C56.7925 42.2631 52.8812 38.3518 48.0564 38.3518C43.2316 38.3518 39.3203 42.2631 39.3203 47.0879C39.3203 51.9127 43.2316 55.824 48.0564 55.824Z" stroke="#9DAAF1"/>
<path d="M15 54.0999C15 54.0999 15.7633 44.0177 23.3952 38.1996C31.027 32.3814 41.7115 37.4424 41.7115 37.4424" stroke="#22307C"/>
<path d="M22.3398 55.2622C22.3398 55.2622 23.0196 52.4385 23.5257 51.0316C24.0319 49.6249 25.0257 47.5951 25.0257 47.5951" stroke="#22307C"/>
</svg>
