<svg width="188" height="48" viewBox="0 0 188 48" fill="none" xmlns="http://www.w3.org/2000/svg">
<path d="M176.225 0.000156H11.7815C11.3414 0.000156 10.9067 0.000156 10.4678 0.002556C10.1004 0.004956 9.73595 0.011928 9.36504 0.017796C8.55926 0.0272782 7.75537 0.0981675 6.96036 0.229848C6.16647 0.364395 5.39745 0.618055 4.67931 0.982248C3.96204 1.34952 3.30666 1.82676 2.73693 2.39664C2.16421 2.96492 1.6868 3.62178 1.32306 4.34195C0.958324 5.06069 0.705412 5.83088 0.573064 6.62593C0.439457 7.41998 0.367562 8.22318 0.358024 9.02833C0.346888 9.39625 0.345712 9.7654 0.339844 10.1334V37.8705C0.345712 38.2431 0.346888 38.604 0.358012 38.9768C0.367553 39.7819 0.439448 40.585 0.573052 41.379C0.705035 42.1745 0.957962 42.9452 1.32305 43.6642C1.68663 44.382 2.1641 45.0362 2.73693 45.6014C3.3045 46.1738 3.96031 46.6513 4.67931 47.0158C5.39745 47.381 6.16638 47.6361 6.96036 47.7728C7.75551 47.9034 8.55931 47.9743 9.36504 47.9849C9.73595 47.9931 10.1004 47.9978 10.4678 47.9978C10.9066 48.0002 11.3414 48.0002 11.7815 48.0002H176.225C176.657 48.0002 177.095 48.0002 177.526 47.9978C177.892 47.9978 178.267 47.9931 178.632 47.9849C179.437 47.9749 180.239 47.9039 181.032 47.7728C181.829 47.6352 182.601 47.3801 183.322 47.0158C184.041 46.6511 184.696 46.1736 185.263 45.6014C185.834 45.034 186.313 44.3803 186.681 43.6642C187.043 42.9447 187.294 42.1741 187.424 41.379C187.558 40.5849 187.632 39.7819 187.646 38.9768C187.651 38.604 187.651 38.2431 187.651 37.8705C187.66 37.4345 187.66 37.001 187.66 36.5579V11.4435C187.66 11.0041 187.66 10.5681 187.651 10.1334C187.651 9.7654 187.651 9.39625 187.646 9.02828C187.632 8.22306 187.558 7.42004 187.424 6.62588C187.293 5.83129 187.043 5.06116 186.681 4.3419C185.94 2.89839 184.766 1.72339 183.322 0.98214C182.601 0.618837 181.829 0.365245 181.032 0.22974C180.239 0.0974794 179.437 0.0265653 178.632 0.017628C178.267 0.011772 177.892 0.00474 177.526 0.0024C177.095 0 176.657 0 176.225 0V0.000156Z" fill="#A6A6A6"/>
<path d="M10.4739 46.9498C10.1083 46.9498 9.75142 46.9451 9.38873 46.937C8.63727 46.9272 7.88756 46.8618 7.14576 46.7412C6.45407 46.6221 5.78401 46.4005 5.15768 46.0838C4.53709 45.7696 3.97106 45.3577 3.48128 44.8638C2.9844 44.3758 2.57074 43.8097 2.25666 43.188C1.93913 42.5624 1.71938 41.8917 1.60506 41.1994C1.48161 40.4555 1.41482 39.7034 1.40526 38.9494C1.39766 38.6963 1.3877 37.8537 1.3877 37.8537V10.133C1.3877 10.133 1.3983 9.30332 1.40532 9.05956C1.41447 8.30678 1.48088 7.55579 1.60396 6.81308C1.71849 6.1189 1.93841 5.4463 2.25611 4.81856C2.56903 4.19734 2.9804 3.63084 3.47428 3.14102C3.9676 2.64655 4.53544 2.23253 5.15709 1.91406C5.78198 1.59832 6.45078 1.37828 7.14107 1.26133C7.88531 1.13961 8.63762 1.0738 9.39168 1.06446L10.4745 1.0498H177.52L178.616 1.06504C179.363 1.07392 180.109 1.13914 180.846 1.26015C181.544 1.37857 182.219 1.60014 182.851 1.91757C184.097 2.55939 185.11 3.5748 185.749 4.82149C186.062 5.4449 186.278 6.11201 186.392 6.80019C186.516 7.54899 186.586 8.30589 186.6 9.06484C186.604 9.40468 186.604 9.76972 186.604 10.133C186.613 10.583 186.613 11.0113 186.613 11.4432V36.5576C186.613 36.9935 186.613 37.4189 186.604 37.8478C186.604 38.238 186.604 38.5955 186.599 38.9634C186.585 39.7089 186.516 40.4522 186.394 41.1876C186.282 41.8849 186.063 42.5608 185.746 43.1916C185.43 43.8065 185.018 44.3677 184.527 44.8545C184.037 45.351 183.47 45.7653 182.848 46.0815C182.218 46.4007 181.543 46.6231 180.846 46.7412C180.104 46.8624 179.355 46.9278 178.603 46.937C178.252 46.9451 177.884 46.9498 177.526 46.9498L176.226 46.9522L10.4739 46.9498Z" fill="black"/>
<path d="M30.0624 24.3608C30.0753 23.3592 30.3414 22.3771 30.8358 21.506C31.3302 20.6348 32.037 19.9029 32.8903 19.3783C32.3482 18.6041 31.6331 17.967 30.8017 17.5175C29.9703 17.0681 29.0456 16.8187 28.1009 16.7891C26.0858 16.5776 24.1323 17.9949 23.1054 17.9949C22.0587 17.9949 20.4777 16.8101 18.7752 16.8451C17.674 16.8807 16.6008 17.2009 15.6602 17.7746C14.7195 18.3483 13.9435 19.1558 13.4077 20.1186C11.0869 24.1367 12.818 30.0419 15.0412 33.2899C16.1535 34.8803 17.4534 36.6568 19.1543 36.5938C20.8188 36.5248 21.4405 35.5324 23.4496 35.5324C25.4401 35.5324 26.0234 36.5938 27.7588 36.5538C29.5449 36.5248 30.6702 34.9563 31.7434 33.3508C32.5426 32.2176 33.1576 30.9651 33.5655 29.6398C32.5279 29.2009 31.6424 28.4663 31.0194 27.5275C30.3965 26.5888 30.0637 25.4874 30.0624 24.3608Z" fill="white"/>
<path d="M26.7845 14.6526C27.7584 13.4836 28.2381 11.9809 28.122 10.4639C26.6342 10.6201 25.2599 11.3312 24.2729 12.4554C23.7903 13.0046 23.4207 13.6435 23.1852 14.3356C22.9497 15.0278 22.8529 15.7595 22.9004 16.4891C23.6446 16.4967 24.3808 16.3354 25.0536 16.0173C25.7264 15.6992 26.3182 15.2326 26.7845 14.6526Z" fill="white"/>
<path d="M55.7188 36.594V25.6264H55.6461L51.1543 36.4803H49.4398L44.9363 25.6264H44.8648V36.594H42.7578V21.6924H45.4332L50.2555 33.4545H50.3375L55.1504 21.6924H57.8351V36.594L55.7188 36.594Z" fill="white"/>
<path d="M59.6152 33.5069C59.6152 31.6073 61.0707 30.46 63.6535 30.3053L66.6277 30.14V29.3139C66.6277 28.1057 65.832 27.4236 64.4785 27.4236C63.9772 27.357 63.4688 27.4755 63.0487 27.7571C62.6286 28.0387 62.3257 28.4639 62.1969 28.9529H60.111C60.1731 26.99 62.0012 25.5967 64.5406 25.5967C67.1328 25.5967 68.8473 27.0111 68.8473 29.1487V36.5948H66.7098V34.8077H66.6582C66.3159 35.4136 65.817 35.9165 65.2138 36.2637C64.6106 36.6108 63.9252 36.7895 63.2293 36.7811C62.7722 36.8258 62.3109 36.7745 61.8748 36.6303C61.4388 36.4862 61.0378 36.2524 60.6974 35.9441C60.3571 35.6357 60.085 35.2596 59.8986 34.8399C59.7122 34.4202 59.6157 33.9661 59.6152 33.5069ZM66.6277 32.526V31.6893L63.9523 31.8545C62.6199 31.9378 61.8664 32.5155 61.8664 33.4448C61.8664 34.3952 62.6516 35.0151 63.8492 35.0151C64.1961 35.0386 64.5441 34.9925 64.8729 34.8794C65.2016 34.7663 65.5044 34.5885 65.7634 34.3565C66.0223 34.1245 66.2322 33.843 66.3807 33.5287C66.5291 33.2143 66.6131 32.8734 66.6278 32.526H66.6277Z" fill="white"/>
<path d="M78.2116 29.4686C78.1141 28.8743 77.7967 28.3384 77.3223 27.9674C76.8479 27.5963 76.2513 27.4173 75.6511 27.4658C73.9366 27.4658 72.8011 28.9014 72.8011 31.1631C72.8011 33.4764 73.9472 34.8697 75.671 34.8697C76.2633 34.929 76.8559 34.7602 77.328 34.3976C77.8001 34.0351 78.1161 33.5061 78.2116 32.9185H80.3596C80.226 34.042 79.6591 35.0689 78.7797 35.7807C77.9002 36.4925 76.7777 36.8329 75.6511 36.7295C72.5527 36.7295 70.5288 34.6119 70.5288 31.1631C70.5288 27.7857 72.5526 25.5967 75.63 25.5967C76.7649 25.5004 77.8925 25.8514 78.7724 26.5747C79.6522 27.298 80.2147 28.3365 80.3398 29.4686H78.2116Z" fill="white"/>
<path d="M94.8514 32.5662H89.1713L87.8072 36.594H85.4014L90.7814 21.6924H93.281L98.6611 36.594H96.2142L94.8514 32.5662ZM89.7596 30.7076H94.262L92.0424 24.1709H91.9803L89.7596 30.7076Z" fill="white"/>
<path d="M110.28 31.1628C110.28 34.5389 108.473 36.7081 105.746 36.7081C105.055 36.7442 104.368 36.5851 103.764 36.2489C103.159 35.9127 102.661 35.4131 102.328 34.8073H102.276V40.1885H100.046V25.7299H102.204V27.537H102.246C102.595 26.934 103.101 26.437 103.71 26.0988C104.319 25.7605 105.008 25.5938 105.705 25.6163C108.462 25.6163 110.28 27.796 110.28 31.1628ZM107.988 31.1628C107.988 28.9632 106.851 27.517 105.117 27.517C103.413 27.517 102.267 28.9936 102.267 31.1628C102.267 33.3518 103.413 34.8178 105.117 34.8178C106.851 34.8178 107.988 33.3823 107.988 31.1628Z" fill="white"/>
<path d="M122.238 31.1628C122.238 34.5389 120.431 36.7081 117.704 36.7081C117.013 36.7442 116.326 36.5851 115.722 36.2489C115.117 35.9127 114.619 35.4131 114.286 34.8073H114.234V40.1885H112.004V25.7299H114.163V27.537H114.204C114.553 26.934 115.059 26.437 115.668 26.0988C116.277 25.7606 116.967 25.5938 117.663 25.6163C120.42 25.6163 122.238 27.796 122.238 31.1628ZM119.946 31.1628C119.946 28.9632 118.809 27.517 117.075 27.517C115.371 27.517 114.225 28.9936 114.225 31.1628C114.225 33.3518 115.371 34.8178 117.075 34.8178C118.809 34.8178 119.946 33.3823 119.946 31.1628H119.946Z" fill="white"/>
<path d="M130.141 32.4424C130.306 33.9202 131.742 34.8904 133.704 34.8904C135.583 34.8904 136.936 33.9201 136.936 32.5877C136.936 31.4311 136.12 30.7385 134.189 30.2639L132.258 29.7986C129.521 29.1377 128.251 27.858 128.251 25.7814C128.251 23.2104 130.492 21.4443 133.673 21.4443C136.822 21.4443 138.981 23.2104 139.053 25.7814H136.802C136.667 24.2943 135.438 23.3967 133.642 23.3967C131.845 23.3967 130.616 24.3049 130.616 25.6268C130.616 26.6803 131.401 27.3002 133.322 27.7748L134.963 28.1779C138.021 28.9009 139.291 30.1291 139.291 32.3088C139.291 35.0966 137.071 36.8427 133.538 36.8427C130.234 36.8427 128.003 35.1377 127.858 32.4423L130.141 32.4424Z" fill="white"/>
<path d="M144.104 23.1592V25.7303H146.17V27.4963H144.104V33.4857C144.104 34.4162 144.518 34.8498 145.426 34.8498C145.671 34.8455 145.916 34.8283 146.159 34.7982V36.5537C145.751 36.63 145.336 36.6645 144.921 36.6568C142.721 36.6568 141.863 35.8306 141.863 33.7236V27.4963H140.284V25.7303H141.863V23.1592H144.104Z" fill="white"/>
<path d="M147.365 31.1631C147.365 27.7447 149.379 25.5967 152.518 25.5967C155.668 25.5967 157.672 27.7447 157.672 31.1631C157.672 34.5908 155.679 36.7295 152.518 36.7295C149.359 36.7295 147.365 34.5908 147.365 31.1631ZM155.4 31.1631C155.4 28.8182 154.325 27.4342 152.518 27.4342C150.711 27.4342 149.636 28.8287 149.636 31.1631C149.636 33.5174 150.711 34.8908 152.518 34.8908C154.325 34.8908 155.4 33.5174 155.4 31.1631H155.4Z" fill="white"/>
<path d="M159.512 25.7298H161.639V27.579H161.69C161.834 27.0015 162.173 26.4911 162.648 26.1336C163.124 25.7762 163.709 25.5934 164.304 25.6161C164.561 25.6152 164.817 25.6432 165.068 25.6994V27.7853C164.743 27.6862 164.405 27.6406 164.066 27.6505C163.742 27.6374 163.419 27.6945 163.119 27.818C162.819 27.9414 162.549 28.1283 162.329 28.3658C162.108 28.6033 161.941 28.8857 161.84 29.1937C161.739 29.5017 161.705 29.828 161.742 30.1501V36.5943H159.512V25.7298Z" fill="white"/>
<path d="M175.348 33.4037C175.048 35.376 173.128 36.7295 170.67 36.7295C167.51 36.7295 165.548 34.6119 165.548 31.2146C165.548 27.8068 167.52 25.5967 170.576 25.5967C173.582 25.5967 175.472 27.6615 175.472 30.9557V31.7197H167.799V31.8545C167.764 32.2543 167.814 32.6571 167.946 33.0361C168.078 33.4151 168.289 33.7617 168.566 34.0527C168.842 34.3438 169.177 34.5727 169.549 34.7243C169.921 34.8758 170.321 34.9466 170.722 34.9318C171.249 34.9812 171.778 34.8592 172.23 34.5838C172.682 34.3085 173.033 33.8946 173.231 33.4037L175.348 33.4037ZM167.81 30.1611H173.241C173.261 29.8016 173.207 29.4418 173.081 29.1044C172.955 28.7669 172.761 28.4591 172.511 28.2002C172.261 27.9413 171.96 27.7369 171.627 27.5998C171.294 27.4627 170.936 27.396 170.576 27.4037C170.213 27.4015 169.853 27.4713 169.517 27.609C169.181 27.7467 168.876 27.9496 168.618 28.2059C168.361 28.4623 168.157 28.7671 168.018 29.1026C167.88 29.4382 167.809 29.798 167.81 30.1611L167.81 30.1611Z" fill="white"/>
<path d="M45.7313 10.4769C46.1989 10.4433 46.668 10.514 47.105 10.6837C47.5419 10.8534 47.9357 11.118 48.258 11.4583C48.5803 11.7987 48.8231 12.2063 48.9688 12.6518C49.1144 13.0974 49.1594 13.5697 49.1005 14.0347C49.1005 16.3222 47.8642 17.6371 45.7313 17.6371H43.145V10.4769H45.7313ZM44.2571 16.6245H45.6071C45.9412 16.6444 46.2755 16.5897 46.5858 16.4641C46.896 16.3386 47.1744 16.1455 47.4006 15.8988C47.6268 15.6521 47.7951 15.3581 47.8933 15.0381C47.9916 14.7182 48.0172 14.3804 47.9684 14.0493C48.0137 13.7195 47.9854 13.3837 47.8857 13.0662C47.786 12.7486 47.6172 12.457 47.3915 12.2122C47.1658 11.9675 46.8888 11.7757 46.5803 11.6507C46.2718 11.5256 45.9395 11.4703 45.6071 11.4887H44.2571V16.6245Z" fill="white"/>
<path d="M50.3568 14.9326C50.3228 14.5775 50.3634 14.2192 50.476 13.8807C50.5887 13.5422 50.7708 13.231 51.0107 12.967C51.2506 12.703 51.5431 12.4921 51.8693 12.3478C52.1955 12.2035 52.5483 12.1289 52.905 12.1289C53.2617 12.1289 53.6145 12.2035 53.9408 12.3478C54.267 12.4921 54.5594 12.703 54.7994 12.967C55.0393 13.231 55.2214 13.5422 55.334 13.8807C55.4466 14.2192 55.4872 14.5775 55.4533 14.9326C55.4879 15.288 55.4477 15.6468 55.3354 15.9858C55.2231 16.3249 55.0411 16.6366 54.8011 16.9011C54.5611 17.1656 54.2685 17.377 53.9419 17.5216C53.6154 17.6663 53.2622 17.741 52.905 17.741C52.5479 17.741 52.1947 17.6663 51.8681 17.5216C51.5416 17.377 51.2489 17.1656 51.0089 16.9011C50.7689 16.6366 50.5869 16.3249 50.4746 15.9858C50.3623 15.6468 50.3222 15.288 50.3568 14.9326ZM54.3564 14.9326C54.3564 13.7613 53.8302 13.0763 52.9068 13.0763C51.9798 13.0763 51.4584 13.7613 51.4584 14.9326C51.4584 16.1132 51.9799 16.7929 52.9068 16.7929C53.8302 16.7929 54.3564 16.1085 54.3564 14.9326H54.3564Z" fill="white"/>
<path d="M62.2278 17.6369H61.1216L60.0048 13.6572H59.9204L58.8083 17.6369H57.7126L56.2231 12.2334H57.3048L58.2728 16.3566H58.3525L59.4634 12.2334H60.4864L61.5974 16.3566H61.6817L62.645 12.2334H63.7114L62.2278 17.6369Z" fill="white"/>
<path d="M64.9644 12.2336H65.9909V13.092H66.0706C66.2058 12.7837 66.4338 12.5253 66.7228 12.3527C67.0119 12.1802 67.3476 12.1021 67.6831 12.1293C67.946 12.1096 68.21 12.1492 68.4555 12.2453C68.7011 12.3414 68.9218 12.4916 69.1014 12.6846C69.281 12.8776 69.4149 13.1086 69.4932 13.3603C69.5714 13.6121 69.592 13.8783 69.5534 14.1391V17.6371H68.487V14.4069C68.487 13.5385 68.1097 13.1067 67.321 13.1067C67.1425 13.0984 66.9643 13.1288 66.7986 13.1958C66.633 13.2628 66.4837 13.3648 66.3612 13.4948C66.2386 13.6249 66.1457 13.7799 66.0886 13.9493C66.0316 14.1186 66.0118 14.2983 66.0308 14.476V17.6372H64.9644L64.9644 12.2336Z" fill="white"/>
<path d="M71.2524 10.124H72.3188V17.6369H71.2524V10.124Z" fill="white"/>
<path d="M73.8011 14.9326C73.7671 14.5775 73.8078 14.2192 73.9204 13.8807C74.033 13.5422 74.2151 13.231 74.455 12.967C74.695 12.703 74.9874 12.4921 75.3136 12.3478C75.6399 12.2035 75.9926 12.1289 76.3494 12.1289C76.7061 12.1289 77.0589 12.2035 77.3851 12.3478C77.7113 12.4921 78.0038 12.703 78.2437 12.967C78.4836 13.231 78.6657 13.5422 78.7783 13.8807C78.891 14.2192 78.9316 14.5775 78.8976 14.9326C78.9322 15.288 78.8921 15.6468 78.7798 15.9858C78.6675 16.3249 78.4855 16.6366 78.2455 16.9011C78.0055 17.1656 77.7128 17.377 77.3863 17.5216C77.0597 17.6663 76.7065 17.741 76.3494 17.741C75.9922 17.741 75.639 17.6663 75.3125 17.5216C74.9859 17.377 74.6932 17.1656 74.4533 16.9011C74.2133 16.6366 74.0313 16.3249 73.9189 15.9858C73.8066 15.6468 73.7665 15.288 73.8011 14.9326ZM77.8007 14.9326C77.8007 13.7613 77.2745 13.0763 76.3511 13.0763C75.4242 13.0763 74.9027 13.7613 74.9027 14.9326C74.9027 16.1132 75.4242 16.7929 76.3511 16.7929C77.2746 16.7929 77.8007 16.1085 77.8007 14.9326H77.8007Z" fill="white"/>
<path d="M80.0205 16.1086C80.0205 15.1359 80.7447 14.5752 82.0303 14.4955L83.4939 14.4111V13.9447C83.4939 13.374 83.1166 13.0518 82.3877 13.0518C81.7924 13.0518 81.3799 13.2703 81.2615 13.6523H80.2291C80.3381 12.7242 81.2111 12.1289 82.4369 12.1289C83.7916 12.1289 84.5557 12.8033 84.5557 13.9447V17.6367H83.5291V16.8773H83.4447C83.2735 17.1497 83.033 17.3718 82.7478 17.5208C82.4627 17.6699 82.1431 17.7406 81.8217 17.7257C81.5948 17.7493 81.3656 17.7251 81.1487 17.6547C80.9317 17.5843 80.732 17.4691 80.5623 17.3168C80.3926 17.1644 80.2567 16.9782 80.1634 16.7701C80.0701 16.562 80.0214 16.3366 80.0205 16.1086ZM83.4939 15.6469V15.1951L82.1744 15.2795C81.4303 15.3293 81.0928 15.5824 81.0928 16.0588C81.0928 16.5451 81.5146 16.8281 82.0948 16.8281C82.2647 16.8453 82.4364 16.8282 82.5996 16.7776C82.7628 16.7271 82.9142 16.6443 83.0448 16.5341C83.1753 16.4239 83.2823 16.2885 83.3595 16.1361C83.4367 15.9837 83.4824 15.8173 83.4939 15.6469Z" fill="white"/>
<path d="M85.957 14.9328C85.957 13.2254 86.8348 12.1438 88.2 12.1438C88.5377 12.1282 88.8729 12.2091 89.1663 12.377C89.4597 12.5448 89.6993 12.7928 89.857 13.0918H89.9367V10.124H91.0031V17.6369H89.9813V16.7832H89.8969C89.727 17.0802 89.479 17.325 89.1799 17.4912C88.8808 17.6574 88.5419 17.7386 88.2 17.726C86.8254 17.726 85.957 16.6444 85.957 14.9328ZM87.0586 14.9328C87.0586 16.0789 87.5989 16.7686 88.5024 16.7686C89.4012 16.7686 89.9567 16.069 89.9567 14.9375C89.9567 13.8113 89.3954 13.1018 88.5024 13.1018C87.6047 13.1018 87.0586 13.7961 87.0586 14.9328H87.0586Z" fill="white"/>
<path d="M95.4153 14.9327C95.3814 14.5775 95.422 14.2192 95.5347 13.8807C95.6473 13.5422 95.8295 13.231 96.0694 12.967C96.3094 12.7031 96.6018 12.4921 96.9281 12.3478C97.2543 12.2035 97.6071 12.1289 97.9639 12.1289C98.3206 12.1289 98.6734 12.2035 98.9997 12.3478C99.3259 12.4921 99.6184 12.7031 99.8584 12.967C100.098 13.231 100.28 13.5422 100.393 13.8807C100.506 14.2192 100.546 14.5775 100.512 14.9327C100.547 15.2881 100.507 15.6469 100.394 15.986C100.282 16.325 100.1 16.6368 99.8601 16.9012C99.6201 17.1657 99.3274 17.3771 99.0008 17.5217C98.6743 17.6664 98.321 17.7411 97.9639 17.7411C97.6067 17.7411 97.2535 17.6664 96.927 17.5217C96.6004 17.3771 96.3077 17.1657 96.0677 16.9012C95.8277 16.6368 95.6456 16.325 95.5333 15.986C95.421 15.6469 95.3808 15.2881 95.4153 14.9327ZM99.4149 14.9327C99.4149 13.7614 98.8888 13.0764 97.9653 13.0764C97.0384 13.0764 96.5169 13.7614 96.5169 14.9327C96.5169 16.1133 97.0384 16.793 97.9653 16.793C98.8887 16.793 99.415 16.1086 99.415 14.9327H99.4149Z" fill="white"/>
<path d="M101.943 12.2336H102.97V13.092H103.05C103.185 12.7837 103.413 12.5253 103.702 12.3527C103.991 12.1802 104.327 12.1021 104.662 12.1293C104.925 12.1096 105.189 12.1492 105.435 12.2453C105.68 12.3414 105.901 12.4916 106.08 12.6846C106.26 12.8776 106.394 13.1086 106.472 13.3603C106.55 13.6121 106.571 13.8783 106.532 14.1391V17.6371H105.466V14.4069C105.466 13.5385 105.089 13.1067 104.3 13.1067C104.122 13.0984 103.943 13.1288 103.778 13.1958C103.612 13.2628 103.463 13.3648 103.34 13.4948C103.218 13.6249 103.125 13.7799 103.068 13.9493C103.011 14.1186 102.991 14.2983 103.01 14.476V17.6372H101.943V12.2336Z" fill="white"/>
<path d="M112.558 10.8877V12.2576H113.729V13.1559H112.558V15.9344C112.558 16.5004 112.791 16.7482 113.322 16.7482C113.458 16.7478 113.594 16.7396 113.729 16.7236V17.6119C113.537 17.6462 113.343 17.6644 113.149 17.6664C111.963 17.6664 111.491 17.2492 111.491 16.2074V13.1558H110.633V12.2576H111.491V10.8877H112.558Z" fill="white"/>
<path d="M115.186 10.124H116.243V13.1018H116.327C116.469 12.7906 116.703 12.5307 116.998 12.3575C117.293 12.1842 117.634 12.1061 117.975 12.1338C118.236 12.1196 118.498 12.1632 118.74 12.2617C118.983 12.3601 119.201 12.5109 119.379 12.7033C119.557 12.8957 119.69 13.125 119.769 13.3748C119.848 13.6245 119.87 13.8886 119.835 14.1482V17.6369H118.768V14.4113C118.768 13.5482 118.366 13.1111 117.613 13.1111C117.429 13.0961 117.245 13.1213 117.072 13.185C116.9 13.2486 116.743 13.3492 116.614 13.4797C116.484 13.6102 116.385 13.7674 116.322 13.9404C116.26 14.1133 116.236 14.2979 116.252 14.481V17.6369H115.186L115.186 10.124Z" fill="white"/>
<path d="M126.053 16.1778C125.909 16.6717 125.595 17.0988 125.167 17.3846C124.739 17.6704 124.224 17.7966 123.712 17.7411C123.356 17.7505 123.002 17.6823 122.675 17.5413C122.348 17.4002 122.056 17.1897 121.818 16.9244C121.581 16.659 121.404 16.3451 121.3 16.0046C121.196 15.664 121.167 15.3048 121.216 14.952C121.169 14.5982 121.198 14.2383 121.301 13.8967C121.405 13.5551 121.581 13.2397 121.817 12.972C122.054 12.7044 122.345 12.4905 122.671 12.3451C122.997 12.1996 123.35 12.126 123.707 12.129C125.211 12.129 126.118 13.1562 126.118 14.853V15.2251H122.302V15.2849C122.286 15.4832 122.31 15.6828 122.375 15.8709C122.44 16.059 122.544 16.2314 122.679 16.3772C122.815 16.5229 122.979 16.6387 123.162 16.7172C123.345 16.7957 123.542 16.8351 123.741 16.8329C123.996 16.8635 124.255 16.8176 124.484 16.7009C124.713 16.5843 124.902 16.4022 125.027 16.1778L126.053 16.1778ZM122.302 14.4364H125.032C125.045 14.2551 125.02 14.0729 124.959 13.9016C124.898 13.7304 124.802 13.5738 124.676 13.442C124.551 13.3101 124.4 13.206 124.232 13.1362C124.064 13.0664 123.883 13.0324 123.701 13.0366C123.517 13.0343 123.334 13.0689 123.163 13.1385C122.992 13.208 122.837 13.311 122.707 13.4415C122.576 13.5719 122.473 13.7272 122.404 13.8981C122.334 14.0689 122.3 14.252 122.302 14.4364H122.302Z" fill="white"/>
</svg>
