<svg width="202" height="48" viewBox="0 0 202 48" fill="none" xmlns="http://www.w3.org/2000/svg">
<rect width="202" height="48" rx="3" fill="black"/>
<g clip-path="url(#clip0_3116_148)">
<path d="M15 15.3824L24.7328 14.0569L24.7372 23.445L15.009 23.5004L15 15.3824ZM24.7282 24.5266L24.7358 33.9229L15.0076 32.5855L15.0071 24.4636L24.7282 24.5266ZM25.908 13.8835L38.8129 12V23.3255L25.908 23.4281V13.8835ZM38.8159 24.615L38.8129 35.8895L25.908 34.0683L25.89 24.594L38.8159 24.615Z" fill="white"/>
</g>
<path d="M52.4 30V18.432C52.448 18.432 52.5893 18.432 52.824 18.432C53.0587 18.432 53.336 18.432 53.656 18.432C53.9813 18.432 54.3093 18.4347 54.64 18.44C54.976 18.44 55.2667 18.4427 55.512 18.448C56.92 18.4747 58.064 18.7173 58.944 19.176C59.8293 19.6293 60.4773 20.2773 60.888 21.12C61.304 21.9573 61.512 22.968 61.512 24.152C61.512 25.3893 61.2907 26.4427 60.848 27.312C60.4107 28.1813 59.7387 28.848 58.832 29.312C57.9307 29.7707 56.784 30 55.392 30H52.4ZM54.376 28.392H55.424C56.2187 28.392 56.92 28.256 57.528 27.984C58.136 27.7067 58.6107 27.2587 58.952 26.64C59.2987 26.0213 59.472 25.1947 59.472 24.16C59.472 23.1573 59.312 22.3547 58.992 21.752C58.672 21.1493 58.2133 20.7147 57.616 20.448C57.0187 20.176 56.304 20.04 55.472 20.04H54.376V28.392ZM66.9041 30.16C66.1148 30.16 65.4268 29.992 64.8401 29.656C64.2535 29.3147 63.7975 28.8267 63.4721 28.192C63.1521 27.5573 62.9921 26.7947 62.9921 25.904C62.9921 25.04 63.1495 24.2827 63.4641 23.632C63.7788 22.9813 64.2268 22.4747 64.8081 22.112C65.3948 21.7493 66.0961 21.568 66.9121 21.568C67.7015 21.568 68.3868 21.7413 68.9681 22.088C69.5495 22.4347 69.9975 22.9307 70.3121 23.576C70.6321 24.2213 70.7921 24.9973 70.7921 25.904C70.7921 26.7413 70.6401 27.48 70.3361 28.12C70.0375 28.7547 69.5975 29.2533 69.0161 29.616C68.4401 29.9787 67.7361 30.16 66.9041 30.16ZM66.9121 28.68C67.3601 28.68 67.7281 28.5573 68.0161 28.312C68.3095 28.0667 68.5281 27.7307 68.6721 27.304C68.8161 26.8773 68.8881 26.392 68.8881 25.848C68.8881 25.3413 68.8241 24.8747 68.6961 24.448C68.5681 24.0213 68.3575 23.68 68.0641 23.424C67.7761 23.1627 67.3921 23.032 66.9121 23.032C66.4588 23.032 66.0828 23.152 65.7841 23.392C65.4908 23.6267 65.2721 23.9573 65.1281 24.384C64.9841 24.8053 64.9121 25.2933 64.9121 25.848C64.9121 26.3493 64.9761 26.816 65.1041 27.248C65.2321 27.6747 65.4428 28.0213 65.7361 28.288C66.0295 28.5493 66.4215 28.68 66.9121 28.68ZM74.2409 30L71.6169 21.728H73.3689L75.0889 27.416H75.1849L76.8569 21.728H78.2729L79.9929 27.408H80.0889L81.7529 21.728H83.5369L80.9129 30H79.2329L77.5369 24.488L75.8809 30H74.2409ZM84.9478 30V21.728H86.8518V22.912C86.9798 22.6987 87.1531 22.4933 87.3718 22.296C87.5958 22.0987 87.8704 21.9387 88.1958 21.816C88.5211 21.6933 88.9024 21.632 89.3398 21.632C89.8518 21.632 90.3264 21.7333 90.7638 21.936C91.2064 22.1387 91.5611 22.456 91.8278 22.888C92.0998 23.32 92.2358 23.8773 92.2358 24.56V30H90.2838V24.792C90.2838 24.248 90.1344 23.8453 89.8358 23.584C89.5371 23.3173 89.1611 23.184 88.7078 23.184C88.3984 23.184 88.1051 23.2373 87.8278 23.344C87.5504 23.4453 87.3238 23.6027 87.1478 23.816C86.9771 24.024 86.8918 24.2853 86.8918 24.6V30H84.9478ZM96.7068 30.12C96.1734 30.12 95.7468 30.0533 95.4268 29.92C95.1068 29.7867 94.8668 29.608 94.7068 29.384C94.5468 29.16 94.4428 28.9093 94.3947 28.632C94.3468 28.3493 94.3228 28.0613 94.3228 27.768V18.112H96.2268V27.544C96.2268 27.9013 96.2988 28.1787 96.4428 28.376C96.5921 28.5733 96.8321 28.688 97.1628 28.72L97.5788 28.736V29.96C97.4348 30.0027 97.2881 30.04 97.1388 30.072C96.9894 30.104 96.8454 30.12 96.7068 30.12ZM102.435 30.16C101.646 30.16 100.958 29.992 100.371 29.656C99.7847 29.3147 99.3287 28.8267 99.0034 28.192C98.6834 27.5573 98.5234 26.7947 98.5234 25.904C98.5234 25.04 98.6807 24.2827 98.9954 23.632C99.31 22.9813 99.758 22.4747 100.339 22.112C100.926 21.7493 101.627 21.568 102.443 21.568C103.233 21.568 103.918 21.7413 104.499 22.088C105.081 22.4347 105.529 22.9307 105.843 23.576C106.163 24.2213 106.323 24.9973 106.323 25.904C106.323 26.7413 106.171 27.48 105.867 28.12C105.569 28.7547 105.129 29.2533 104.547 29.616C103.971 29.9787 103.267 30.16 102.435 30.16ZM102.443 28.68C102.891 28.68 103.259 28.5573 103.547 28.312C103.841 28.0667 104.059 27.7307 104.203 27.304C104.347 26.8773 104.419 26.392 104.419 25.848C104.419 25.3413 104.355 24.8747 104.227 24.448C104.099 24.0213 103.889 23.68 103.595 23.424C103.307 23.1627 102.923 23.032 102.443 23.032C101.99 23.032 101.614 23.152 101.315 23.392C101.022 23.6267 100.803 23.9573 100.659 24.384C100.515 24.8053 100.443 25.2933 100.443 25.848C100.443 26.3493 100.507 26.816 100.635 27.248C100.763 27.6747 100.974 28.0213 101.267 28.288C101.561 28.5493 101.953 28.68 102.443 28.68ZM110.418 30.16C109.89 30.16 109.415 30.064 108.994 29.872C108.578 29.6747 108.25 29.3947 108.01 29.032C107.775 28.664 107.658 28.2187 107.658 27.696C107.658 26.784 107.986 26.096 108.642 25.632C109.303 25.168 110.354 24.9253 111.794 24.904L113.034 24.872V24.312C113.034 23.8747 112.903 23.5333 112.642 23.288C112.386 23.0373 111.986 22.9147 111.442 22.92C111.037 22.9253 110.669 23.0213 110.338 23.208C110.007 23.3893 109.789 23.696 109.682 24.128H108.026C108.058 23.5627 108.221 23.0907 108.514 22.712C108.813 22.328 109.221 22.0427 109.738 21.856C110.255 21.664 110.853 21.568 111.53 21.568C112.319 21.568 112.962 21.672 113.458 21.88C113.954 22.088 114.319 22.3893 114.554 22.784C114.789 23.1733 114.906 23.6453 114.906 24.2V30H113.266L113.106 28.512C112.813 29.136 112.437 29.568 111.978 29.808C111.525 30.0427 111.005 30.16 110.418 30.16ZM111.05 28.84C111.29 28.84 111.527 28.7973 111.762 28.712C111.997 28.6213 112.207 28.5013 112.394 28.352C112.586 28.1973 112.738 28.0267 112.85 27.84C112.967 27.6533 113.029 27.4587 113.034 27.256V25.952L112.018 25.968C111.517 25.9733 111.077 26.0267 110.698 26.128C110.325 26.2293 110.034 26.392 109.826 26.616C109.618 26.8347 109.514 27.128 109.514 27.496C109.514 27.9173 109.661 28.248 109.954 28.488C110.247 28.7227 110.613 28.84 111.05 28.84ZM120.051 30.16C118.958 30.16 118.099 29.784 117.475 29.032C116.851 28.28 116.539 27.2107 116.539 25.824C116.539 24.96 116.664 24.2107 116.915 23.576C117.171 22.936 117.547 22.4427 118.043 22.096C118.539 21.744 119.15 21.568 119.875 21.568C120.216 21.568 120.526 21.6107 120.803 21.696C121.086 21.776 121.336 21.8827 121.555 22.016C121.774 22.1493 121.958 22.296 122.107 22.456C122.262 22.616 122.382 22.776 122.467 22.936V18.112H124.427V30H122.987L122.771 28.304C122.702 28.5013 122.603 28.7093 122.475 28.928C122.352 29.1413 122.184 29.3413 121.971 29.528C121.763 29.7147 121.502 29.8667 121.187 29.984C120.872 30.1013 120.494 30.16 120.051 30.16ZM120.451 28.728C121.15 28.728 121.659 28.5013 121.979 28.048C122.304 27.5893 122.467 26.832 122.467 25.776C122.462 25.1733 122.387 24.6667 122.243 24.256C122.104 23.8453 121.891 23.536 121.603 23.328C121.315 23.12 120.939 23.016 120.475 23.016C119.888 23.016 119.406 23.232 119.027 23.664C118.654 24.096 118.467 24.8 118.467 25.776C118.467 26.7467 118.64 27.4827 118.987 27.984C119.334 28.48 119.822 28.728 120.451 28.728ZM132.474 32.152C132.031 31.4 131.645 30.6613 131.314 29.936C130.983 29.2053 130.727 28.448 130.546 27.664C130.365 26.88 130.274 26.0347 130.274 25.128C130.274 23.8 130.485 22.528 130.906 21.312C131.327 20.096 131.877 18.9947 132.554 18.008H133.914C133.37 19.0427 132.925 20.1733 132.578 21.4C132.237 22.6213 132.066 23.8693 132.066 25.144C132.066 26.3493 132.215 27.5173 132.514 28.648C132.818 29.7787 133.255 30.9467 133.826 32.152H132.474ZM139.687 30.176C138.743 30.176 137.927 29.9413 137.239 29.472C136.551 29.0027 136.021 28.3387 135.647 27.48C135.279 26.616 135.095 25.5947 135.095 24.416C135.095 23.1627 135.279 22.0773 135.647 21.16C136.015 20.2373 136.549 19.5253 137.247 19.024C137.951 18.5227 138.802 18.272 139.799 18.272C140.482 18.272 141.114 18.4 141.695 18.656C142.277 18.9067 142.754 19.2693 143.127 19.744C143.501 20.2187 143.719 20.792 143.783 21.464H141.983C141.834 20.9467 141.578 20.5467 141.215 20.264C140.853 19.9813 140.394 19.84 139.839 19.84C139.226 19.84 138.714 20.0133 138.303 20.36C137.893 20.7067 137.597 21.2053 137.415 21.856C137.239 22.5013 137.183 23.2747 137.247 24.176C137.413 23.8613 137.637 23.5893 137.919 23.36C138.202 23.1253 138.525 22.944 138.887 22.816C139.25 22.688 139.634 22.624 140.039 22.624C140.813 22.624 141.49 22.7707 142.071 23.064C142.653 23.3573 143.106 23.7733 143.431 24.312C143.757 24.8507 143.919 25.488 143.919 26.224C143.919 26.9867 143.743 27.6667 143.391 28.264C143.039 28.856 142.546 29.3227 141.911 29.664C141.277 30.0053 140.535 30.176 139.687 30.176ZM139.639 28.648C140.055 28.648 140.429 28.5493 140.759 28.352C141.095 28.1547 141.359 27.88 141.551 27.528C141.749 27.176 141.847 26.7707 141.847 26.312C141.847 25.8427 141.757 25.4453 141.575 25.12C141.394 24.7947 141.135 24.5467 140.799 24.376C140.469 24.2053 140.079 24.12 139.631 24.12C139.263 24.12 138.906 24.2053 138.559 24.376C138.218 24.5467 137.938 24.768 137.719 25.04C137.506 25.312 137.399 25.6027 137.399 25.912C137.394 26.4613 137.485 26.9413 137.671 27.352C137.858 27.7627 138.119 28.0827 138.455 28.312C138.797 28.536 139.191 28.648 139.639 28.648ZM150.682 30L150.69 27.256H145.306V25.6L150.634 18.432H152.57V25.6H154.418V27.256H152.57V30H150.682ZM147.13 25.6H150.674V20.848L147.13 25.6ZM155.867 26.608V25.152L160.091 25.144V26.6L155.867 26.608ZM166.535 30.16C166.092 30.16 165.713 30.1013 165.399 29.984C165.084 29.8667 164.82 29.7147 164.607 29.528C164.399 29.3413 164.231 29.1413 164.103 28.928C163.98 28.7093 163.887 28.5013 163.823 28.304L163.599 30H162.167V18.112H164.119V22.936C164.204 22.776 164.321 22.616 164.471 22.456C164.625 22.296 164.812 22.1493 165.031 22.016C165.249 21.8827 165.497 21.776 165.775 21.696C166.057 21.6107 166.369 21.568 166.711 21.568C167.74 21.568 168.553 21.9333 169.151 22.664C169.748 23.3947 170.047 24.448 170.047 25.824C170.047 26.6933 169.913 27.4533 169.647 28.104C169.385 28.7547 168.993 29.2613 168.471 29.624C167.953 29.9813 167.308 30.16 166.535 30.16ZM166.135 28.728C166.716 28.728 167.193 28.496 167.567 28.032C167.94 27.568 168.127 26.816 168.127 25.776C168.127 24.8693 167.951 24.184 167.599 23.72C167.247 23.2507 166.751 23.016 166.111 23.016C165.652 23.016 165.276 23.12 164.983 23.328C164.695 23.536 164.479 23.8453 164.335 24.256C164.196 24.6667 164.124 25.1733 164.119 25.776C164.119 26.832 164.279 27.5893 164.599 28.048C164.924 28.5013 165.436 28.728 166.135 28.728ZM171.839 30V21.728H173.703V30H171.839ZM171.807 20.28V18.44H173.735V20.28H171.807ZM179.252 30.064C178.596 30.064 178.087 29.9787 177.724 29.808C177.367 29.632 177.119 29.384 176.98 29.064C176.841 28.744 176.772 28.3627 176.772 27.92V23.104H175.428V21.728H176.828L177.316 19.272H178.716V21.72H180.564V23.104H178.716L178.724 27.848C178.724 28.0933 178.751 28.2747 178.804 28.392C178.863 28.504 178.953 28.5787 179.076 28.616C179.204 28.648 179.372 28.664 179.58 28.664H180.604V29.896C180.492 29.9387 180.327 29.976 180.108 30.008C179.895 30.0453 179.609 30.064 179.252 30.064ZM181.711 32.152C182.287 30.9467 182.724 29.7787 183.023 28.648C183.322 27.5173 183.471 26.3493 183.471 25.144C183.471 23.8693 183.3 22.6213 182.959 21.4C182.618 20.1733 182.172 19.0427 181.623 18.008H182.983C183.66 18.9947 184.21 20.096 184.631 21.312C185.052 22.528 185.263 23.8 185.263 25.128C185.263 26.0347 185.172 26.88 184.991 27.664C184.81 28.448 184.554 29.2053 184.223 29.936C183.892 30.6613 183.506 31.4 183.063 32.152H181.711Z" fill="white"/>
<defs>
<clipPath id="clip0_3116_148">
<rect width="24" height="24" fill="white" transform="translate(15 12)"/>
</clipPath>
</defs>
</svg>
