<svg xmlns="http://www.w3.org/2000/svg" width="48" height="48" fill="none" aria-labelledby="passwordAuthenticator" role="img" viewBox="0 0 48 48">
  <title id="passwordAuthenticator">Password Authenticator</title>
  <circle cx="24" cy="24" r="24" fill="#F5F5F6" class="siwFillBg"/>
  <path fill="#A7B5EC" d="M11 17h-1V9h8v1h-7v7Zm28 0h-1v-7h-7V9h8v8ZM18 39h-8v-8h1v7h7v1Zm21 0h-8v-1h7v-7h1v8Z" class="siwFillSecondary"/>
  <path fill="#00297A" d="m14.91 22.067-1.829 1.064V21h-1v2.131l-1.83-1.064-.502.866L11.585 24l-1.836 1.067.502.866 1.83-1.064V27h1v-2.131l1.829 1.064.503-.866L13.576 24l1.837-1.067-.503-.866Zm7.946 0-1.829 1.064V21h-1v2.131l-1.829-1.064-.503.866L19.531 24l-1.836 1.067.503.866 1.83-1.064V27h1v-2.131l1.828 1.064.503-.866L21.523 24l1.836-1.067-.503-.866Zm7.946 0-1.829 1.064V21h-1v2.131l-1.829-1.064-.503.866L27.477 24l-1.836 1.067.503.866 1.83-1.064V27h1v-2.131l1.828 1.064.503-.866L29.47 24l1.836-1.067-.503-.866Zm8.448.866-.501-.866-1.83 1.064V21h-1v2.131l-1.83-1.064-.502.866L35.424 24l-1.837 1.067.503.866 1.829-1.064V27h1v-2.131l1.83 1.064.502-.866L37.415 24l1.836-1.067Z" class="siwFillPrimary"/>
</svg>
