<svg xmlns="http://www.w3.org/2000/svg" width="48" height="48" fill="none" aria-labelledby="emailAuthenticator" role="img" viewBox="0 0 48 48">
  <title id="emailAuthenticator">Email Authenticator</title>
  <circle cx="24" cy="24" r="24" fill="#F5F5F6" class="siwFillBg"/>
  <path fill="#A7B5EC" d="M32 18v1h5.3L32 24.29v1.42l6-6.01v12.8a1.5 1.5 0 0 1-1.5 1.5h-17a1.5 1.5 0 0 1-1.5-1.5V31h-1v1.5a2.5 2.5 0 0 0 2.5 2.5h17a2.5 2.5 0 0 0 2.5-2.5V18h-7Z" class="siwFillSecondary"/>
  <path fill="#00297A" d="M9 13v14.5a2.5 2.5 0 0 0 2.5 2.5h17a2.5 2.5 0 0 0 2.5-2.5V13H9Zm20.293 1-8.81 8.81L10.794 14h18.499ZM28.5 29h-17a1.5 1.5 0 0 1-1.5-1.5V14.63l10.517 9.56L30 14.707V27.5a1.5 1.5 0 0 1-1.5 1.5Z" class="siwFillPrimary"/>
</svg>
