<svg xmlns="http://www.w3.org/2000/svg" width="24" height="24" fill="none" viewBox="0 0 24 24">
  <g clip-path="url(#1f8786c79b5ec51a)">
    <circle cx="12" cy="12" r="12" fill="#fff"/>
    <path fill="#1877F2" d="M12 0C5.373 0 0 5.395 0 12.05c0 5.97 4.326 10.825 9.999 11.782v-9.268H7.104v-3.366h2.895V8.715c0-2.88 1.752-4.45 4.31-4.45 1.226 0 2.28.092 2.585.133v3.01l-1.775.001c-1.391 0-1.66.664-1.66 1.638v2.149h3.32l-.432 3.367H13.46v9.347C19.397 23.184 24 18.205 24 12.047 24 5.395 18.627 0 12 0z"/>
  </g>
  <defs>
    <clipPath id="1f8786c79b5ec51a">
      <path fill="#fff" d="M0 0h24v24H0z"/>
    </clipPath>
  </defs>
</svg>
