<svg width="24" height="24" viewBox="0 0 24 24" fill="none" xmlns="http://www.w3.org/2000/svg">
<path fill-rule="evenodd" clip-rule="evenodd" d="M11.9984 0.003853C5.37429 0.00160569 0.0022479 5.36979 5.84223e-07 11.9942C-0.00160464 17.1605 3.30483 21.7475 8.20686 23.3788C8.80272 23.4902 9.0252 23.1187 9.0252 22.8028C9.0252 22.4869 9.01525 21.5716 9.00915 20.5683C5.67254 21.2955 4.96945 19.1558 4.96945 19.1558C4.42367 17.7653 3.63679 17.4 3.63679 17.4C2.54845 16.6551 3.72026 16.6709 3.72026 16.6709C4.92386 16.7563 5.55728 17.9062 5.55728 17.9062C6.62796 19.7417 8.36385 19.2113 9.04896 18.8996C9.15619 18.1249 9.46632 17.5964 9.80984 17.2966C7.14517 16.9926 4.34598 15.9639 4.34598 11.3679C4.328 10.1755 4.77136 9.02263 5.58296 8.14907C5.45776 7.84504 5.0465 6.62571 5.6979 4.97073C5.6979 4.97073 6.70501 4.64969 8.99695 6.20194C10.963 5.66162 13.0389 5.66162 15.005 6.20194C17.2915 4.64808 18.2986 4.97137 18.2986 4.97137C18.95 6.62379 18.541 7.84311 18.4158 8.14971C19.2257 9.02359 19.6675 10.1758 19.6492 11.3672C19.6492 15.9752 16.8446 16.99 14.1732 17.286C14.6043 17.6568 14.9876 18.3888 14.9876 19.506C14.9876 21.1112 14.9738 22.4038 14.9738 22.799C14.9738 23.1168 15.1883 23.4921 15.796 23.373C22.0802 21.2782 25.4762 14.4849 23.381 8.20076C21.7479 3.30194 17.1624 -0.00192542 11.9984 8.4186e-07V0.003853Z" fill="black"/>
</svg>
