<svg width="24" height="24" viewBox="0 0 24 24" fill="none" xmlns="http://www.w3.org/2000/svg">
<path d="M18.5895 0H5.4105C2.42236 0 0 2.42236 0 5.4105V18.5895C0 21.5776 2.42236 24 5.4105 24H18.5895C21.5776 24 24 21.5776 24 18.5895V5.4105C24 2.42236 21.5776 0 18.5895 0Z" fill="#06C755"/>
<path d="M19.9996 10.869C19.9996 7.2885 16.4101 4.3755 11.9978 4.3755C7.58559 4.3755 3.99609 7.2885 3.99609 10.869C3.99609 14.079 6.84609 16.7678 10.6876 17.2755C10.9486 17.3318 11.3033 17.4473 11.3926 17.67C11.4736 17.8725 11.4458 18.1898 11.4188 18.3938C11.4188 18.3938 11.3251 18.9585 11.3048 19.0785C11.2696 19.281 11.1436 19.8698 11.9978 19.5105C12.8521 19.1513 16.6058 16.797 18.2843 14.8643C19.4438 13.593 19.9996 12.3 19.9996 10.869Z" fill="white"/>
<path d="M17.337 12.9368H15.087C15.0472 12.9368 15.0091 12.921 14.9809 12.8928C14.9528 12.8647 14.937 12.8265 14.937 12.7868V9.29551C14.937 9.25573 14.9528 9.21757 14.9809 9.18944C15.0091 9.16131 15.0472 9.14551 15.087 9.14551H17.337C17.3768 9.14551 17.4149 9.16131 17.4431 9.18944C17.4712 9.21757 17.487 9.25573 17.487 9.29551V9.86326C17.487 9.90304 17.4712 9.94119 17.4431 9.96932C17.4149 9.99745 17.3768 10.0133 17.337 10.0133H15.8093V10.602H17.337C17.3768 10.602 17.4149 10.6178 17.4431 10.6459C17.4712 10.6741 17.487 10.7122 17.487 10.752V11.325C17.487 11.3648 17.4712 11.4029 17.4431 11.4311C17.4149 11.4592 17.3768 11.475 17.337 11.475H15.8093V12.0645H17.337C17.3768 12.0645 17.4149 12.0803 17.4431 12.1084C17.4712 12.1366 17.487 12.1747 17.487 12.2145V12.7815C17.4877 12.8016 17.4844 12.8217 17.4771 12.8405C17.4699 12.8593 17.459 12.8765 17.445 12.891C17.431 12.9055 17.4142 12.917 17.3957 12.9249C17.3771 12.9327 17.3572 12.9368 17.337 12.9368Z" fill="#06C755"/>
<path d="M9.02177 12.9367C9.06156 12.9367 9.09971 12.9209 9.12784 12.8928C9.15597 12.8647 9.17177 12.8265 9.17177 12.7867V12.2197C9.17177 12.18 9.15597 12.1418 9.12784 12.1137C9.09971 12.0855 9.06156 12.0697 9.02177 12.0697H7.49402V9.29474C7.49402 9.25496 7.47822 9.21681 7.45009 9.18868C7.42196 9.16055 7.38381 9.14474 7.34402 9.14474H6.77402C6.73424 9.14474 6.69609 9.16055 6.66796 9.18868C6.63983 9.21681 6.62402 9.25496 6.62402 9.29474V12.7845C6.62402 12.8243 6.63983 12.8624 6.66796 12.8906C6.69609 12.9187 6.73424 12.9345 6.77402 12.9345H9.02402L9.02177 12.9367Z" fill="#06C755"/>
<path d="M10.3748 9.13875H9.80779C9.72329 9.13875 9.65479 9.20725 9.65479 9.29175V12.7837C9.65479 12.8682 9.72329 12.9367 9.80779 12.9367H10.3748C10.4593 12.9367 10.5278 12.8682 10.5278 12.7837V9.29175C10.5278 9.20725 10.4593 9.13875 10.3748 9.13875Z" fill="#06C755"/>
<path d="M14.2378 9.13875H13.6708C13.631 9.13875 13.5928 9.15455 13.5647 9.18268C13.5366 9.21081 13.5208 9.24897 13.5208 9.28875V11.3632L11.9233 9.2055C11.9196 9.19978 11.9153 9.1945 11.9105 9.18975L11.9015 9.18075L11.8933 9.174H11.8888L11.8805 9.168H11.876L11.8678 9.1635H11.8625H11.8543H11.849H11.84H11.834H11.825H11.819H11.8108H11.2325C11.1927 9.1635 11.1546 9.1793 11.1265 9.20743C11.0983 9.23556 11.0825 9.27372 11.0825 9.3135V12.8055C11.0825 12.8453 11.0983 12.8834 11.1265 12.9116C11.1546 12.9397 11.1927 12.9555 11.2325 12.9555H11.8003C11.8401 12.9555 11.8782 12.9397 11.9063 12.9116C11.9345 12.8834 11.9503 12.8453 11.9503 12.8055V10.7107L13.55 12.8707C13.5605 12.886 13.5737 12.8993 13.589 12.9097L13.598 12.9157H13.6025L13.61 12.9195H13.6175H13.6228H13.6333C13.6465 12.9228 13.6601 12.9245 13.6738 12.9247H14.2378C14.2776 12.9247 14.3157 12.9089 14.3438 12.8808C14.372 12.8527 14.3878 12.8145 14.3878 12.7747V9.29175C14.3882 9.2718 14.3846 9.25197 14.3772 9.23342C14.3699 9.21488 14.3589 9.19799 14.3449 9.18374C14.3309 9.16949 14.3143 9.15817 14.2959 9.15045C14.2775 9.14272 14.2577 9.13874 14.2378 9.13875Z" fill="#06C755"/>
</svg>
