<svg xmlns="http://www.w3.org/2000/svg" width="24" height="24" fill="none" viewBox="0 0 24 24">
  <path fill="#0A66C2" d="M20.45 20.45h-3.557v-5.57c0-1.328-.023-3.038-1.85-3.038-1.851 0-2.135 1.447-2.135 2.941v5.666H9.352V8.996h3.414v1.565c.695-1.188 2.04-1.901 3.416-1.85 3.604 0 4.269 2.371 4.269 5.455l-.002 6.284zM5.34 7.43a2.074 2.074 0 0 1-2.064-2.063c0-1.133.931-2.064 2.063-2.064 1.132 0 2.064.931 2.064 2.063A2.074 2.074 0 0 1 5.34 7.43zm1.778 13.02h-3.56V8.995h3.56V20.45zM22.222 0H1.771A1.76 1.76 0 0 0 0 1.73v20.538A1.76 1.76 0 0 0 1.77 24h20.452A1.764 1.764 0 0 0 24 22.268V1.728A1.762 1.762 0 0 0 22.222 0z"/>
</svg>
