<svg xmlns="http://www.w3.org/2000/svg" width="24" height="24" fill="none" viewBox="0 0 24 24">
  <path fill="#00297A" fill-rule="evenodd" d="M17.915 11.235a5.965 5.965 0 1 1-1.525-3.273L12 12.332l-2.137-2.127a.874.874 0 0 0-1.202 0 .84.84 0 0 0-.25.6c0 .226.089.438.25.598l2.737 2.726a.855.855 0 0 0 1.203 0l9.156-9.116a12.07 12.07 0 0 0-1.089-1.31A11.965 11.965 0 0 0 12 0C5.373 0 0 5.372 0 12c0 6.627 5.373 12 12 12 6.628 0 12-5.373 12-12 0-1.981-.482-3.85-1.332-5.497l-4.753 4.732z" clip-rule="evenodd"/>
</svg>
