<svg width="24" height="24" viewBox="0 0 24 24" fill="none" xmlns="http://www.w3.org/2000/svg">
<path d="M24 12C24 18.6281 18.6281 24 12 24C5.37188 24 0 18.6281 0 12C0 5.37188 5.37188 0 12 0C18.6281 0 24 5.37188 24 12Z" fill="#A6CE39"/>
<path d="M8.09072 17.4563H6.64697V7.41563H8.09072V11.9531V17.4563Z" fill="white"/>
<path d="M10.2095 7.41563H14.1095C17.822 7.41563 19.4532 10.0688 19.4532 12.4406C19.4532 15.0188 17.4376 17.4656 14.1282 17.4656H10.2095V7.41563ZM11.6532 16.1625H13.9501C17.222 16.1625 17.972 13.6781 17.972 12.4406C17.972 10.425 16.6876 8.71876 13.8751 8.71876H11.6532V16.1625Z" fill="white"/>
<path d="M8.31562 5.325C8.31562 5.84063 7.89375 6.27188 7.36875 6.27188C6.84375 6.27188 6.42188 5.84063 6.42188 5.325C6.42188 4.8 6.84375 4.37813 7.36875 4.37813C7.89375 4.37813 8.31562 4.80938 8.31562 5.325Z" fill="white"/>
</svg>
