<svg width="24" height="24" viewBox="0 0 24 24" fill="none" xmlns="http://www.w3.org/2000/svg">
<path d="M9.62579 4.8004C9.46106 4.80039 9.30174 4.85918 9.17649 4.96618C9.05124 5.07318 8.9683 5.22137 8.94258 5.38408L7.80709 12.5841L6.76381 19.2L6.76318 19.2055L6.76444 19.2L7.80772 12.5841C7.86076 12.2478 8.15027 12.0004 8.49055 12.0004H11.817C15.1648 12.0004 18.0063 9.55794 18.5252 6.24821C18.5647 5.99675 18.5859 5.74768 18.5907 5.50188V5.5015H18.5903C17.7395 5.05514 16.7405 4.8004 15.6458 4.8004H9.62579Z" fill="#001C64"/>
<path d="M18.5904 5.50163C18.5857 5.74743 18.5643 5.99675 18.5248 6.24821C18.0059 9.55794 15.1645 12.0004 11.8167 12.0004H8.4902C8.14992 12.0004 7.86041 12.2478 7.80737 12.5841L6.7641 19.2L6.10936 23.3508C6.09675 23.431 6.10166 23.5129 6.12375 23.591C6.14584 23.6691 6.18459 23.7415 6.23732 23.8032C6.29006 23.8649 6.35554 23.9144 6.42925 23.9484C6.50296 23.9824 6.58316 24 6.66432 24H10.275C10.4398 24 10.5991 23.9412 10.7243 23.8342C10.8496 23.7272 10.9325 23.579 10.9582 23.4163L11.9094 17.3841C11.9627 17.0478 12.2523 16.8 12.5926 16.8H14.7187C18.0665 16.8 20.9076 14.3577 21.4265 11.0482C21.7949 8.69873 20.6125 6.56141 18.5904 5.50163Z" fill="#0070E0"/>
<path d="M5.52336 3.05176e-05C5.35857 3.56511e-05 5.19919 0.0588755 5.07394 0.165954C4.94868 0.273032 4.86577 0.421314 4.84014 0.584095L2.00688 18.5504C1.99421 18.6306 1.99908 18.7126 2.02114 18.7908C2.0432 18.8689 2.08194 18.9414 2.13468 19.0031C2.18743 19.0648 2.25293 19.1144 2.32667 19.1484C2.40041 19.1824 2.48065 19.2 2.56185 19.2H6.76354L7.80682 12.5841L8.94231 5.38409C8.96803 5.22138 9.05097 5.07318 9.17622 4.96618C9.30147 4.85918 9.46079 4.80039 9.62552 4.8004H15.6453C16.7402 4.8004 17.7393 5.05552 18.5902 5.50125C18.6481 2.48809 16.1618 3.05176e-05 12.743 3.05176e-05H5.52336Z" fill="#003087"/>
</svg>
