<svg width="24" height="24" viewBox="0 0 24 24" fill="none" xmlns="http://www.w3.org/2000/svg">
<path fill-rule="evenodd" clip-rule="evenodd" d="M0 12C0 5.37257 5.31796 0 11.8776 0C18.4374 0 23.7551 5.37257 23.7551 12C23.7551 18.6272 18.4374 24 11.8776 24C5.31796 24 0 18.6272 0 12Z" fill="#2CA01C"/>
<path fill-rule="evenodd" clip-rule="evenodd" d="M15.8906 7.35135H15.222V9.07788H15.8906C17.5128 9.07788 18.8328 10.3891 18.8328 12.0005C18.8328 13.6117 17.5128 14.9226 15.8906 14.9226H14.2838V5.89005C14.2838 4.93641 13.5053 4.16327 12.5453 4.16327V16.6496H15.8906C18.4758 16.6496 20.5713 14.568 20.5713 12.0005C20.5713 9.43274 18.4758 7.35135 15.8906 7.35135ZM3.18359 11.9995C3.18359 14.5673 5.27919 16.6487 7.86433 16.6487H8.5329V14.9219H7.86433C6.24213 14.9219 4.92212 13.6112 4.92212 11.9995C4.92212 10.3883 6.24213 9.07739 7.86433 9.07739H9.4711V18.11C9.4711 19.0636 10.2496 19.8367 11.2096 19.8367V7.35037H7.86433C5.27919 7.35037 3.18359 9.432 3.18359 11.9995Z" fill="white"/>
</svg>
