<svg width="24" height="24" viewBox="0 0 24 24" fill="none" xmlns="http://www.w3.org/2000/svg">
<path d="M9.98738 5.84571C10.7614 5.03324 11.839 4.52936 13.0308 4.52936C14.6151 4.52936 15.9973 5.41933 16.7333 6.74049C17.373 6.45257 18.081 6.29241 18.826 6.29241C21.6834 6.29241 24 8.64648 24 11.5502C24 14.4543 21.6834 16.8084 18.826 16.8084C18.4773 16.8084 18.1364 16.7732 17.8069 16.7061C17.1587 17.8709 15.9234 18.6579 14.5057 18.6579C13.9122 18.6579 13.3508 18.5197 12.8509 18.2742C12.1938 19.8313 10.6629 20.9231 8.87862 20.9231C7.02051 20.9231 5.43693 19.7387 4.82906 18.0776C4.56342 18.1344 4.28821 18.164 4.00582 18.164C1.79351 18.164 0 16.3386 0 14.0865C0 12.5773 0.805814 11.2595 2.00308 10.5545C1.75658 9.98315 1.61949 9.35252 1.61949 8.68953C1.61949 6.09954 3.70667 4 6.28102 4C7.79248 4 9.13573 4.72396 9.98738 5.84571Z" fill="#00A1E0"/>
<path d="M3.47569 12.7772C3.46065 12.8167 3.48116 12.825 3.48595 12.8319C3.53108 12.865 3.57689 12.8887 3.62304 12.9152C3.86783 13.0461 4.09894 13.0844 4.34065 13.0844C4.83296 13.0844 5.13859 12.8206 5.13859 12.3959V12.3876C5.13859 11.995 4.79364 11.8524 4.46988 11.7494L4.42783 11.7357C4.18373 11.6557 3.97313 11.5869 3.97313 11.425V11.4163C3.97313 11.2779 4.09621 11.176 4.28697 11.176C4.49894 11.176 4.75057 11.2469 4.91261 11.3372C4.91261 11.3372 4.96014 11.3681 4.97758 11.3217C4.98714 11.2969 5.06922 11.0744 5.07773 11.0503C5.08699 11.0241 5.07057 11.0048 5.05381 10.9945C4.86886 10.8812 4.61313 10.8037 4.34852 10.8037L4.29928 10.804C3.84868 10.804 3.53416 11.0782 3.53416 11.4712V11.4794C3.53416 11.8937 3.88116 12.0281 4.20629 12.1218L4.2586 12.1379C4.49552 12.2113 4.69963 12.2743 4.69963 12.4424V12.4506C4.69963 12.6042 4.56697 12.7186 4.35296 12.7186C4.26988 12.7186 4.00493 12.7169 3.71877 12.5347C3.68424 12.5143 3.66407 12.4995 3.6374 12.4834C3.62338 12.4744 3.58817 12.4589 3.57279 12.5057L3.47569 12.7772Z" fill="white"/>
<path d="M10.6831 12.7772C10.6681 12.8167 10.6886 12.825 10.6933 12.8319C10.7385 12.865 10.7843 12.8887 10.8304 12.9152C11.0752 13.0461 11.3064 13.0844 11.5481 13.0844C12.0404 13.0844 12.346 12.8206 12.346 12.3959V12.3876C12.346 11.995 12.0011 11.8524 11.6773 11.7494L11.6352 11.7357C11.3911 11.6557 11.1805 11.5869 11.1805 11.425V11.4163C11.1805 11.2779 11.3036 11.176 11.4944 11.176C11.7064 11.176 11.958 11.2469 12.12 11.3372C12.12 11.3372 12.1676 11.3681 12.185 11.3217C12.1945 11.2969 12.2766 11.0744 12.2851 11.0503C12.2944 11.0241 12.278 11.0048 12.2612 10.9945C12.0763 10.8812 11.8205 10.8037 11.5559 10.8037L11.5067 10.804C11.0561 10.804 10.7415 11.0782 10.7415 11.4712V11.4794C10.7415 11.8937 11.0886 12.0281 11.4137 12.1218L11.466 12.1379C11.703 12.2113 11.9074 12.2743 11.9074 12.4424V12.4506C11.9074 12.6042 11.7744 12.7186 11.5604 12.7186C11.4773 12.7186 11.2123 12.7169 10.9262 12.5347C10.8916 12.5143 10.8711 12.5002 10.8451 12.4834C10.8363 12.4775 10.7945 12.4613 10.7802 12.5057L10.6831 12.7772Z" fill="white"/>
<path d="M15.603 11.9447C15.603 12.1848 15.5586 12.3739 15.4711 12.5075C15.3846 12.6398 15.2536 12.7041 15.0711 12.7041C14.8882 12.7041 14.7579 12.6401 14.6728 12.5075C14.5866 12.3742 14.5429 12.1848 14.5429 11.9447C14.5429 11.705 14.5866 11.5163 14.6728 11.384C14.7579 11.2531 14.8882 11.1894 15.0711 11.1894C15.2536 11.1894 15.3846 11.2531 15.4714 11.384C15.5586 11.5163 15.603 11.705 15.603 11.9447ZM16.014 11.4997C15.9737 11.3624 15.9107 11.2411 15.827 11.1402C15.7432 11.0389 15.6372 10.9576 15.5114 10.8984C15.386 10.8395 15.2376 10.8095 15.0711 10.8095C14.9042 10.8095 14.7559 10.8395 14.6304 10.8984C14.5046 10.9576 14.3986 11.0389 14.3145 11.1402C14.2311 11.2414 14.1682 11.3627 14.1275 11.4997C14.0875 11.6365 14.0673 11.786 14.0673 11.9447C14.0673 12.1035 14.0875 12.2533 14.1275 12.3897C14.1682 12.5268 14.2308 12.648 14.3148 12.7493C14.3986 12.8505 14.5049 12.9315 14.6304 12.989C14.7562 13.0465 14.9042 13.0758 15.0711 13.0758C15.2376 13.0758 15.3856 13.0465 15.5114 12.989C15.6369 12.9315 15.7432 12.8505 15.827 12.7493C15.9107 12.6484 15.9737 12.5271 16.014 12.3897C16.0543 12.253 16.0745 12.1031 16.0745 11.9447C16.0745 11.7863 16.0543 11.6365 16.014 11.4997Z" fill="white"/>
<path d="M19.389 12.6402C19.3753 12.5999 19.3367 12.6151 19.3367 12.6151C19.2768 12.6381 19.2133 12.6595 19.1455 12.6702C19.0768 12.6809 19.0013 12.6864 18.9203 12.6864C18.7213 12.6864 18.5633 12.6268 18.4502 12.509C18.3367 12.3912 18.2731 12.2007 18.2738 11.9431C18.2745 11.7086 18.3305 11.5322 18.4314 11.3979C18.5315 11.2643 18.684 11.1957 18.8874 11.1957C19.057 11.1957 19.1862 11.2154 19.3216 11.2584C19.3216 11.2584 19.3541 11.2726 19.3695 11.2299C19.4054 11.1293 19.432 11.0573 19.4704 10.9467C19.4813 10.9154 19.4546 10.9019 19.445 10.8982C19.3917 10.8772 19.2659 10.8431 19.1709 10.8286C19.082 10.8148 18.978 10.8076 18.8624 10.8076C18.6898 10.8076 18.536 10.8372 18.4043 10.8964C18.2731 10.9553 18.1616 11.0366 18.0734 11.1379C17.9852 11.2391 17.9182 11.3604 17.8734 11.4974C17.829 11.6342 17.8064 11.7843 17.8064 11.9431C17.8064 12.2865 17.8984 12.5641 18.0799 12.7673C18.2618 12.9712 18.535 13.0749 18.8912 13.0749C19.1018 13.0749 19.3179 13.0318 19.4731 12.9702C19.4731 12.9702 19.5028 12.9557 19.4898 12.9209L19.389 12.6402Z" fill="white"/>
<path d="M20.1079 11.7147C20.1273 11.5814 20.1639 11.4705 20.2203 11.384C20.3055 11.2528 20.4354 11.1808 20.6179 11.1808C20.8005 11.1808 20.9212 11.2531 21.0077 11.384C21.0651 11.4705 21.0901 11.5862 21.1 11.7147H20.1079ZM21.4915 11.4216C21.4566 11.289 21.3701 11.155 21.3133 11.0937C21.2237 10.9966 21.1362 10.9287 21.0494 10.8908C20.9359 10.8419 20.7998 10.8095 20.6508 10.8095C20.4771 10.8095 20.3195 10.8388 20.1916 10.8994C20.0634 10.96 19.9557 11.0427 19.8713 11.1457C19.7868 11.2483 19.7232 11.3706 19.6829 11.5094C19.6422 11.6475 19.6217 11.798 19.6217 11.9568C19.6217 12.1183 19.6429 12.2688 19.6849 12.4042C19.7273 12.5406 19.795 12.6608 19.8867 12.7603C19.9779 12.8606 20.0956 12.9391 20.2364 12.9938C20.3762 13.0482 20.5462 13.0765 20.7414 13.0761C21.1431 13.0748 21.3547 12.9845 21.4419 12.936C21.4573 12.9274 21.4719 12.9122 21.4535 12.8688L21.3625 12.6122C21.3489 12.574 21.3102 12.5881 21.3102 12.5881C21.2108 12.6253 21.0692 12.6921 20.7393 12.6914C20.5236 12.6911 20.3636 12.627 20.2634 12.5268C20.1605 12.4242 20.1102 12.2733 20.1014 12.0605L21.4925 12.0619C21.4925 12.0619 21.529 12.0612 21.5328 12.0253C21.5341 12.0102 21.5806 11.7374 21.4915 11.4216Z" fill="white"/>
<path d="M8.96684 11.7147C8.98666 11.5814 9.0229 11.4705 9.0793 11.384C9.16444 11.2528 9.29437 11.1808 9.4769 11.1808C9.65948 11.1808 9.78015 11.2531 9.86699 11.384C9.9241 11.4705 9.94907 11.5862 9.95898 11.7147H8.96684ZM10.3501 11.4216C10.3152 11.289 10.2291 11.155 10.1723 11.0937C10.0827 10.9966 9.99522 10.9287 9.90838 10.8908C9.79487 10.8419 9.65878 10.8095 9.50973 10.8095C9.33641 10.8095 9.17845 10.8388 9.05057 10.8994C8.9224 10.96 8.81469 11.0427 8.73025 11.1457C8.64582 11.2483 8.58221 11.3706 8.54186 11.5094C8.50152 11.6475 8.48065 11.798 8.48065 11.9568C8.48065 12.1183 8.50188 12.2688 8.54392 12.4042C8.58631 12.5406 8.65403 12.6608 8.74562 12.7603C8.83691 12.8606 8.95453 12.9391 9.09537 12.9938C9.23521 13.0482 9.40513 13.0765 9.60033 13.0761C10.002 13.0748 10.2137 12.9845 10.3008 12.936C10.3162 12.9274 10.3309 12.9122 10.3125 12.8688L10.2218 12.6122C10.2078 12.574 10.1692 12.5881 10.1692 12.5881C10.0697 12.6253 9.92855 12.6921 9.59792 12.6914C9.38256 12.6911 9.22255 12.627 9.1224 12.5268C9.01949 12.4242 8.96924 12.2733 8.96033 12.0605L10.3514 12.0619C10.3514 12.0619 10.388 12.0612 10.3918 12.0253C10.3932 12.0102 10.4397 11.7374 10.3501 11.4216Z" fill="white"/>
<path d="M5.96034 12.6326C5.90598 12.5889 5.89848 12.5779 5.88001 12.5496C5.85268 12.5066 5.83867 12.4453 5.83867 12.3675C5.83867 12.2441 5.87901 12.1556 5.96274 12.096C5.96274 12.096 6.08241 11.991 6.36614 11.9948C6.56549 11.9975 6.74362 12.0272 6.74362 12.0272V12.6643C6.74362 12.6643 6.5672 12.7025 6.3682 12.7146C6.08516 12.7318 5.96034 12.6326 5.96034 12.6326ZM6.51384 11.6479C6.45744 11.6438 6.38426 11.6414 6.29678 11.6414C6.17746 11.6414 6.06224 11.6565 5.95418 11.6858C5.84547 11.7151 5.74773 11.7609 5.66359 11.8216C5.57916 11.8825 5.51114 11.9603 5.46189 12.0526C5.41264 12.1449 5.38772 12.2538 5.38772 12.3757C5.38772 12.4997 5.40889 12.6075 5.45128 12.6957C5.49367 12.7842 5.55488 12.8579 5.63281 12.9147C5.71009 12.9716 5.80548 13.0132 5.91624 13.0384C6.0253 13.0635 6.14908 13.0762 6.28446 13.0762C6.42701 13.0762 6.56925 13.0646 6.70704 13.0408C6.84342 13.0174 7.01094 12.9832 7.05744 12.9726C7.10358 12.9615 7.15488 12.9474 7.15488 12.9474C7.18942 12.9388 7.18667 12.9016 7.18667 12.9016L7.18602 11.6201C7.18602 11.339 7.11149 11.1307 6.96479 11.0015C6.8188 10.8727 6.60378 10.8076 6.3258 10.8076C6.22155 10.8076 6.05368 10.8221 5.95318 10.8424C5.95318 10.8424 5.64923 10.9016 5.5241 11.0001C5.5241 11.0001 5.49677 11.0174 5.51179 11.0559L5.61029 11.3225C5.62255 11.3569 5.65573 11.3452 5.65573 11.3452C5.65573 11.3452 5.66634 11.3411 5.67866 11.3339C5.94632 11.1871 6.28481 11.1916 6.28481 11.1916C6.43521 11.1916 6.55078 11.2219 6.62871 11.2822C6.70463 11.3407 6.74327 11.4293 6.74327 11.6159V11.6752C6.6236 11.6579 6.51384 11.6479 6.51384 11.6479Z" fill="white"/>
<path d="M17.7336 10.9258C17.7441 10.8941 17.7219 10.8789 17.7127 10.8755C17.6891 10.8662 17.5708 10.8411 17.4795 10.8352C17.3048 10.8245 17.2077 10.8542 17.1209 10.8934C17.0348 10.9327 16.939 10.9961 16.8857 11.068V10.8976C16.8857 10.8738 16.8689 10.8548 16.8457 10.8548H16.4891C16.4658 10.8548 16.4491 10.8738 16.4491 10.8976V12.9878C16.4491 13.0112 16.4682 13.0305 16.4915 13.0305H16.857C16.8802 13.0305 16.899 13.0112 16.899 12.9878V11.9435C16.899 11.8034 16.9144 11.6635 16.9452 11.5757C16.9753 11.4889 17.0163 11.4193 17.0669 11.3694C17.1178 11.3198 17.1756 11.285 17.2389 11.2654C17.3035 11.2454 17.3749 11.2389 17.4255 11.2389C17.4983 11.2389 17.5784 11.2578 17.5784 11.2578C17.605 11.2609 17.62 11.2444 17.6289 11.2199C17.6529 11.1559 17.7205 10.964 17.7336 10.9258Z" fill="white"/>
<path d="M14.3029 9.9558C14.2585 9.94204 14.2181 9.93273 14.1655 9.92272C14.1122 9.91311 14.0486 9.90826 13.9765 9.90826C13.7249 9.90826 13.5266 9.97993 13.3874 10.1211C13.2489 10.2617 13.1549 10.4755 13.1077 10.7569L13.0907 10.8516H12.7748C12.7748 10.8516 12.7365 10.8502 12.7283 10.8922L12.6766 11.184C12.6729 11.2115 12.6848 11.2291 12.7217 11.2291H13.0291L12.7173 12.9828C12.693 13.1241 12.665 13.2401 12.6339 13.3283C12.6035 13.4151 12.5737 13.4802 12.5368 13.5277C12.5012 13.5732 12.4677 13.6069 12.4096 13.6266C12.3617 13.6427 12.3064 13.6503 12.2459 13.6503C12.2123 13.6503 12.1675 13.6448 12.1344 13.6379C12.1016 13.6314 12.0842 13.6241 12.0592 13.6135C12.0592 13.6135 12.0233 13.5997 12.0089 13.6358C11.9977 13.6658 11.9156 13.8928 11.9057 13.9207C11.8961 13.9486 11.9098 13.9703 11.9272 13.9768C11.9682 13.9913 11.9987 14.001 12.0544 14.0144C12.1317 14.0326 12.197 14.0336 12.2582 14.0336C12.386 14.0336 12.5029 14.0154 12.5997 13.9803C12.6968 13.9448 12.7816 13.8831 12.8568 13.7998C12.9378 13.7096 12.9888 13.6152 13.0373 13.486C13.0855 13.3586 13.1269 13.2001 13.1597 13.0156L13.4732 11.2291H13.9313C13.9313 11.2291 13.9699 11.2305 13.9778 11.1881L14.0298 10.8967C14.0332 10.8689 14.0216 10.8516 13.9843 10.8516H13.5395C13.5419 10.8416 13.5621 10.6839 13.613 10.5354C13.6349 10.4724 13.676 10.4211 13.7105 10.386C13.7447 10.3515 13.784 10.3271 13.8271 10.313C13.8711 10.2985 13.9214 10.2916 13.9765 10.2916C14.0181 10.2916 14.0595 10.2964 14.0907 10.303C14.1337 10.3123 14.1505 10.3171 14.1617 10.3205C14.2072 10.3343 14.2134 10.3209 14.2223 10.2988L14.3286 10.0047C14.3395 9.97302 14.3125 9.95961 14.3029 9.9558Z" fill="white"/>
<path d="M8.08852 12.9865C8.08852 13.0099 8.07175 13.0289 8.04848 13.0289H7.67961C7.65639 13.0289 7.63997 13.0099 7.63997 12.9865V9.99562C7.63997 9.97219 7.65639 9.95322 7.67961 9.95322H8.04848C8.07175 9.95322 8.08852 9.97219 8.08852 9.99562V12.9865Z" fill="white"/>
</svg>
