<svg width="24" height="24" viewBox="0 0 24 24" fill="none" xmlns="http://www.w3.org/2000/svg">
<path fill-rule="evenodd" clip-rule="evenodd" d="M11.0258 0.0450784C10.4586 0.105652 10.2053 0.138693 9.56654 0.254334C9.33526 0.298388 8.6304 0.480109 8.3055 0.584737C8.09074 0.656324 7.7328 0.782978 7.58963 0.843552L7.28676 0.970207C4.97394 1.91736 2.85386 3.81167 1.53775 6.11348C1.38907 6.37229 1.00911 7.14874 0.920999 7.37451C0.893465 7.45161 0.843904 7.56725 0.816371 7.63333C0.634649 8.05735 0.309753 9.18622 0.210632 9.74791C0.188605 9.85804 0.161073 10.0067 0.150059 10.0838C0.122526 10.238 0.072964 10.64 0.0289102 11.1301C-0.00963675 11.7193 -0.00963675 12.314 0.0289102 12.9088C0.0894841 13.52 0.128031 13.7898 0.183099 14.1202C0.238166 14.4286 0.392354 15.0949 0.452928 15.3097C0.541035 15.6015 0.794344 16.3505 0.816371 16.378C0.838397 16.411 0.849411 16.4496 0.860425 16.4826C0.882451 16.5542 0.904478 16.6093 1.05867 16.9562C2.43534 20.051 5.53012 22.7438 8.59185 23.5202L9.04891 23.6413C10.8496 24.1149 13.1734 24.1204 14.9025 23.6524L15.2385 23.5643C17.8486 22.8704 20.3982 21.0257 21.9346 18.7239C22.3311 18.1291 23.0084 16.8846 23.0084 16.7524C23.0084 16.7249 23.0194 16.7029 23.036 16.6809C23.091 16.6148 23.438 15.6511 23.5426 15.2601C23.5701 15.161 23.6087 15.0123 23.6307 14.9242C24.0932 13.2116 24.0877 10.9043 23.6197 9.0871C23.5701 8.89437 23.5206 8.70163 23.5095 8.66309C22.8873 6.24013 20.9709 3.5914 18.7462 2.09908C18.4874 1.92287 18.0193 1.63101 17.9973 1.63101C17.9533 1.60899 17.9092 1.58696 17.8652 1.55943C17.7385 1.48233 17.1713 1.19047 16.9455 1.09135L16.3123 0.821525C16.2076 0.771965 15.5303 0.54619 15.3761 0.507643C13.7847 0.0726129 12.2648 -0.0870827 11.0258 0.0450784ZM11.8463 6.41084C12.4741 6.45489 13.4378 6.55952 13.8232 6.62009C13.9223 6.63661 14.1041 6.66415 14.2307 6.68067C16.1746 6.96702 18.3332 7.67188 19.9467 8.55295C20.6901 8.96045 20.9434 9.47808 20.6956 10.1058C20.4698 10.673 19.7044 10.9704 19.1868 10.6951C18.7462 10.4638 17.8927 10.0343 17.7715 9.9847C17.6944 9.95716 17.5953 9.91311 17.5458 9.89108C17.0722 9.68734 16.0534 9.36244 15.4147 9.20825C15.3321 9.18622 15.1889 9.15318 15.0953 9.13116C14.9081 9.0816 14.2858 8.96596 13.7406 8.87234C11.0974 8.4263 7.74932 8.54744 5.44201 9.18072C5.05654 9.28534 4.96843 9.30186 4.75918 9.29085C3.67435 9.23578 3.31091 7.83708 4.22503 7.24235C4.67658 6.9505 6.8242 6.5375 8.59185 6.41084C9.13151 6.37229 11.3232 6.37229 11.8463 6.41084ZM10.9487 10.5188C12.5347 10.5959 14.1041 10.8878 15.6074 11.3834C17.287 11.9396 18.7903 12.7215 18.994 13.1455C19.4236 14.0542 18.4048 14.8692 17.5568 14.2965C17.298 14.1202 16.4334 13.6962 15.9598 13.5035C14.071 12.7491 12.0611 12.3746 9.90795 12.3801C8.49824 12.3801 7.26473 12.5453 5.83849 12.9308C5.45302 13.0354 5.32086 13.0354 5.08958 12.9308C4.2856 12.5729 4.34067 11.466 5.17769 11.1797C6.64247 10.6785 8.9608 10.4142 10.9487 10.5188ZM11.3232 14.4451L11.9565 14.5057C13.3111 14.6434 14.853 15.0784 16.114 15.6786C16.5435 15.8824 17.2484 16.2789 17.342 16.3615C17.9037 16.8846 17.4522 17.7987 16.7032 17.6611C16.6482 17.65 16.4389 17.5509 16.2352 17.4353C14.6823 16.5542 13.201 16.1137 11.2736 15.9485C10.4641 15.8824 8.88371 15.9099 8.23391 16.009L7.8925 16.0586C7.46297 16.1192 6.86274 16.2183 6.64247 16.2568L6.12484 16.367C5.42549 16.5157 5.02901 16.2624 5.02901 15.6786C5.02901 15.2216 5.22725 15.0344 5.86603 14.8912C7.57862 14.5057 9.96853 14.313 11.3232 14.4451Z" fill="#1DDA63"/>
</svg>
