<svg width="24" height="24" viewBox="0 0 24 24" fill="none" xmlns="http://www.w3.org/2000/svg">
<path d="M12 24C18.6275 24 24 18.6275 24 12C24 5.37258 18.6275 -1.05451e-06 12 -1.05451e-06C5.37258 -1.05451e-06 0 5.37258 0 12C0 18.6275 5.37258 24 12 24Z" fill="#1AB4D7"/>
<path d="M5.74444 11.9653L7.79234 9.91236C7.86023 9.84316 7.89812 9.75155 7.89812 9.65438C7.89812 9.45189 7.73351 9.28744 7.53101 9.28744C7.43238 9.28744 7.33991 9.3261 7.27018 9.39669C7.26997 9.3971 5.22411 11.4418 5.22411 11.4418L3.16891 9.39363C3.09946 9.32516 3.00744 9.28744 2.90987 9.28744C2.70762 9.28744 2.54297 9.45181 2.54297 9.6541C2.54297 9.75277 2.58237 9.84537 2.65308 9.91514L4.70069 11.9625L2.65414 14.0129C2.5822 14.0837 2.54297 14.1765 2.54297 14.2756C2.54297 14.4781 2.70762 14.6423 2.90987 14.6423C3.00761 14.6423 3.09971 14.6044 3.16891 14.5351L5.22093 12.4859L7.26516 14.5277C7.33766 14.6026 7.43119 14.6425 7.53101 14.6425C7.7333 14.6425 7.89791 14.4781 7.89791 14.2756C7.89791 14.1779 7.86007 14.0861 7.79119 14.0169L5.74444 11.9653Z" fill="white"/>
<path d="M17.9185 11.9647C17.9185 12.3324 18.2174 12.6315 18.5855 12.6315C18.9528 12.6315 19.2519 12.3324 19.2519 11.9647C19.2519 11.5969 18.9528 11.2979 18.5855 11.2979C18.2174 11.2979 17.9185 11.5969 17.9185 11.9647Z" fill="white"/>
<path d="M16.6541 11.965C16.6541 10.9003 17.5203 10.034 18.5852 10.034C19.6495 10.034 20.5158 10.9003 20.5158 11.965C20.5158 13.0295 19.6495 13.8955 18.5852 13.8955C17.5203 13.8955 16.6541 13.0295 16.6541 11.965ZM15.8945 11.965C15.8945 13.4484 17.1015 14.6552 18.5852 14.6552C20.0687 14.6552 21.2763 13.4484 21.2763 11.965C21.2763 10.4815 20.0687 9.27429 18.5852 9.27429C17.1015 9.27429 15.8945 10.4815 15.8945 11.965Z" fill="white"/>
<path d="M15.7035 9.32032L15.5906 9.31999C15.2517 9.31999 14.9249 9.42687 14.6519 9.63725C14.6159 9.47264 14.4688 9.34877 14.2935 9.34877C14.0918 9.34877 13.9302 9.5104 13.9297 9.71253C13.9297 9.71326 13.9309 14.2442 13.9309 14.2442C13.9314 14.4459 14.096 14.6099 14.2979 14.6099C14.4997 14.6099 14.6642 14.4459 14.6647 14.2437C14.6647 14.2428 14.6649 11.4573 14.6649 11.4573C14.6649 10.5286 14.7498 10.1536 15.5453 10.0542C15.6189 10.045 15.6988 10.0464 15.6992 10.0464C15.9168 10.039 16.0715 9.88939 16.0715 9.68722C16.0715 9.48493 15.9064 9.32032 15.7035 9.32032Z" fill="white"/>
<path d="M8.65804 11.5221C8.65804 11.512 8.65882 11.5016 8.65931 11.4913C8.87233 10.6492 9.635 10.026 10.5433 10.026C11.4626 10.026 12.2322 10.6645 12.4343 11.5221H8.65804ZM13.1857 11.4528C13.0276 10.7042 12.6178 10.0893 11.9937 9.69436C11.0814 9.11517 9.87669 9.14722 8.99551 9.77385C8.27673 10.2852 7.86182 11.1217 7.86182 11.9833C7.86182 12.1994 7.88786 12.4175 7.94208 12.6321C8.21349 13.6998 9.13133 14.508 10.2256 14.642C10.5504 14.6813 10.8664 14.6625 11.1937 14.5777C11.475 14.5093 11.7471 14.3952 11.9979 14.2345C12.2581 14.0672 12.4756 13.8466 12.6861 13.5825C12.6904 13.5777 12.6947 13.5734 12.6989 13.5683C12.8451 13.387 12.818 13.1292 12.6574 13.0062C12.5219 12.9024 12.2945 12.8603 12.1156 13.0894C12.0771 13.1442 12.0342 13.2006 11.987 13.257C11.8447 13.4142 11.6682 13.5665 11.4566 13.6847C11.1875 13.8285 10.8808 13.9106 10.5547 13.9125C9.48741 13.9006 8.9163 13.1556 8.71315 12.6239C8.67768 12.5246 8.65032 12.4216 8.63126 12.3155C8.62877 12.2957 8.62693 12.2765 8.6262 12.2589C8.84686 12.2589 12.4561 12.2583 12.4561 12.2583C12.9812 12.2472 13.2638 11.8766 13.1857 11.4528Z" fill="white"/>
</svg>
