<svg width="24" height="24" viewBox="0 0 24 24" fill="none" xmlns="http://www.w3.org/2000/svg">
<path d="M20.4 0H3.6C1.61177 0 0 1.61177 0 3.6V20.4C0 22.3882 1.61177 24 3.6 24H20.4C22.3882 24 24 22.3882 24 20.4V3.6C24 1.61177 22.3882 0 20.4 0Z" fill="#5F01D1"/>
<path d="M9.51562 18.9375H6.60938L7.78125 16.1719L4.54688 8.4375H7.5L9.23438 12.8906L10.9688 8.4375H13.875M16.5938 12H13.3594L16.2656 5.0625H19.5" fill="white"/>
<path d="M14.2031 16.2188C15.1869 16.2188 15.9844 15.4213 15.9844 14.4375C15.9844 13.4537 15.1869 12.6562 14.2031 12.6562C13.2194 12.6562 12.4219 13.4537 12.4219 14.4375C12.4219 15.4213 13.2194 16.2188 14.2031 16.2188Z" fill="white"/>
</svg>
