<svg width="24" height="24" viewBox="0 0 24 24" fill="none" xmlns="http://www.w3.org/2000/svg">
<path d="M18.9313 7.9875L19.4338 7.19016H11.6231L11.7542 8.04211C11.8926 8.04211 12.2677 8.08214 12.8794 8.16225C13.4911 8.24236 13.9208 8.30789 14.1684 8.35884C14.1465 8.57733 13.8353 8.95416 13.2344 9.48938C12.6336 10.0246 12 10.558 11.3336 11.0895C10.6672 11.6211 10.2904 11.9488 10.203 12.0726C10.0428 11.8396 9.46017 11.0714 8.45517 9.76791C7.45017 8.46445 6.70003 7.45228 6.20484 6.73139C6.39417 6.68039 6.88758 6.62578 7.68502 6.56752C8.48245 6.5093 8.93948 6.46922 9.05597 6.44738L9.18708 5.67188H0.0983161L0 6.49106C0.131088 6.52022 0.598997 6.58758 1.40373 6.69314C2.20846 6.79875 2.66181 6.86972 2.76377 6.90614C3.24442 7.27022 4.20027 8.33883 5.63133 10.112C7.06238 11.8851 7.82887 12.9173 7.93083 13.2085V16.0048C7.93083 16.2159 7.85798 16.3816 7.71234 16.5017C7.5667 16.6219 7.36275 16.7184 7.10058 16.7912C6.47428 16.966 5.88075 17.0279 5.31998 16.9769L5.09058 17.9053C5.52023 17.9199 5.93536 17.9272 6.33591 17.9272C6.73645 17.9272 7.26628 17.9217 7.92534 17.9108C8.58445 17.8999 8.99044 17.8944 9.14339 17.8944C12.0564 17.8944 13.5894 17.9053 13.7424 17.9272L13.8516 16.8786L11.1534 16.6929C11.117 14.5229 11.117 13.3433 11.1534 13.1539C11.2481 12.8845 11.7251 12.3657 12.5844 11.5974C13.4438 10.8292 14.3068 10.1156 15.1734 9.45661C16.0401 8.79759 16.5607 8.44627 16.7355 8.40258C18.0828 8.14767 18.8147 8.00934 18.9313 7.9875ZM24 8.05303L19.7396 15.2948L18.2649 14.8797L20.6354 7.0372L24 8.05303ZM16.6373 17.8398L18.538 18.375L19.2699 16.7475L17.3145 16.2014L16.6373 17.8398Z" fill="#FF0132"/>
</svg>
