<?xml version="1.0" encoding="UTF-8"?>
<!DOCTYPE svg PUBLIC "-//W3C//DTD SVG 1.1//EN" "http://www.w3.org/Graphics/SVG/1.1/DTD/svg11.dtd">
<svg version="1.1" xmlns="http://www.w3.org/2000/svg" xmlns:xlink="http://www.w3.org/1999/xlink" x="0" y="0" width="1196" height="410" viewBox="0, 0, 1196, 410">
  <g id="Background">
    <rect x="0" y="0" width="1196" height="410" fill="#FFFFFF" fill-opacity="0"/>
  </g>
  <g id="Logo">
    <path d="M1041.504,104.9 C959.304,104.9 892.304,171.9 892.304,254.1 C892.304,336.3 959.304,403.3 1041.504,403.3 C1123.704,403.3 1190.704,336.3 1190.704,254.1 C1190.704,171.9 1123.704,104.9 1041.504,104.9 z M1041.504,328.5 C999.904,328.5 967.304,294.9 967.304,254.3 C967.304,213.7 1000.904,180.1 1041.504,180.1 C1082.104,180.1 1115.704,213.7 1115.704,254.3 C1115.704,294.9 1082.304,328.5 1041.504,328.5 z" fill="#00297A"/>
    <path d="M680.613,305.1 C680.613,293.1 695.013,287.5 703.013,295.5 C740.613,333.9 802.013,398.5 802.013,399.3 C802.813,400.1 803.613,401.7 807.613,402.5 C809.213,403.3 811.613,403.3 814.013,403.3 L881.013,403.3 C893.013,403.3 897.013,388.9 891.413,382.5 L779.613,267.5 L774.013,261.1 C761.213,245.9 762.813,240.3 777.213,224.3 L865.813,126.1 C871.413,118.9 868.213,105.3 855.413,105.3 L794.813,105.3 C792.413,105.3 790.813,105.3 789.213,106.1 C785.213,106.9 784.413,108.5 783.613,109.3 C783.613,109.3 734.013,161.9 704.613,194.7 C696.613,203.5 681.413,197.9 681.413,185.9 L681.413,16.9 C681.413,8.1 674.213,4.9 668.613,4.9 L619.013,4.9 C610.213,4.9 606.213,10.5 606.213,16.1 L606.213,391.3 C606.213,400.1 613.413,402.5 619.013,402.5 L667.813,402.5 C675.813,402.5 680.613,396.9 680.613,391.3 L680.613,387.3 L680.613,305.1 L680.613,305.1 z" fill="#00297A"/>
    <path d="M552.016,389.7 L546.417,339.5 C545.616,332.3 539.216,328.3 532.816,329.1 C528.816,329.9 524.816,329.9 521.616,329.9 C481.616,329.9 449.816,298.7 447.416,259.7 C447.416,258.1 447.416,257.3 447.416,255.7 L447.416,194.9 C447.416,186.9 453.016,180.5 461.016,180.5 L528.016,180.5 C532.816,180.5 540.016,176.5 540.016,167.7 L540.016,120.7 C540.016,111.9 534.417,106.3 528.816,106.3 L461.816,106.3 C453.816,106.3 447.416,100.7 447.416,92.7 L447.416,17.7 C447.416,12.9 444.216,5.7 434.616,5.7 L385.216,5.7 C378.816,5.7 373.216,9.7 373.216,16.9 C373.216,16.9 373.216,258.1 373.216,259.7 C375.616,340.3 441.016,405.1 522.417,405.1 C528.816,405.1 536.016,404.3 542.417,403.5 C548.016,402.5 552.816,396.1 552.016,389.7 z" fill="#00297A"/>
    <path d="M351.897,327.5 C309.497,327.5 303.097,312.3 303.097,255.7 C303.097,255.7 303.097,255.7 303.097,254.9 L303.097,119.1 C303.097,114.3 299.897,106.3 290.297,106.3 L240.697,106.3 C234.297,106.3 227.897,111.1 227.897,119.1 L227.897,125.5 C206.297,113.5 180.697,106.3 154.497,106.3 C72.297,106.3 5.297,173.3 5.297,255.5 C5.297,337.7 72.297,404.7 154.497,404.7 C191.297,404.7 225.497,391.1 251.097,368.7 C265.497,390.3 287.897,403.9 322.897,404.7 C329.297,404.7 360.497,405.5 360.497,391.1 L360.497,338.5 C360.697,332.3 356.697,327.5 351.897,327.5 z M153.897,329.1 C112.297,329.1 79.697,295.5 79.697,254.9 C79.697,213.3 113.297,180.7 153.897,180.7 C195.497,180.7 228.097,214.3 228.097,254.9 C228.897,295.5 195.297,329.1 153.897,329.1 z" fill="#00297A"/>
  </g>
</svg>
