<svg width="48" height="47" viewBox="0 0 48 47" fill="none" xmlns="http://www.w3.org/2000/svg">
<path d="M14.9578 16.9467C18.6945 20.6833 18.6945 26.7423 14.9578 30.4789C14.4058 31.0305 13.5107 31.0307 12.9588 30.4789C12.4069 29.927 12.4071 29.0319 12.9588 28.4799C15.5914 25.8472 15.5914 21.5783 12.9588 18.9457C12.407 18.3937 12.4069 17.4986 12.9588 16.9467C13.5107 16.3947 14.4058 16.3949 14.9578 16.9467Z" fill="#3F59E4"/>
<path d="M18.8025 13.1029C24.662 18.9626 24.662 28.463 18.8025 34.3227C18.2506 34.8746 17.3555 34.8745 16.8035 34.3227C16.2515 33.7707 16.2515 32.8756 16.8035 32.3236C21.559 27.568 21.5589 19.8577 16.8035 15.102C16.2515 14.5499 16.2515 13.6549 16.8035 13.1029C17.3555 12.5509 18.2505 12.5509 18.8025 13.1029Z" fill="#3F59E4"/>
<path d="M22.6463 9.2582C30.6291 17.241 30.629 30.1836 22.6463 38.1664C22.0943 38.7184 21.1993 38.7184 20.6473 38.1664C20.0957 37.6145 20.0957 36.7203 20.6473 36.1684C27.5261 29.2895 27.5261 18.136 20.6473 11.2572C20.0955 10.7052 20.0953 9.81014 20.6473 9.2582C21.1992 8.70631 22.0943 8.70642 22.6463 9.2582Z" fill="#3F59E4"/>
<path d="M26.491 5.41445C36.5966 15.5203 36.5967 31.9053 26.491 42.0111C25.9391 42.5631 25.044 42.5629 24.492 42.0111C23.94 41.4591 23.94 40.5641 24.492 40.0121C33.4937 31.0103 33.4936 16.4154 24.492 7.41348C23.94 6.86147 23.94 5.96646 24.492 5.41445C25.044 4.86253 25.939 4.86247 26.491 5.41445Z" fill="#3F59E4"/>
</svg>
