<svg width="86" height="86" viewBox="0 0 86 86" fill="none" xmlns="http://www.w3.org/2000/svg">
<rect width="86" height="86" fill="#DEF3FF"/>
<path d="M38.9665 42.0178C45.679 42.0178 51.1205 36.5762 51.1205 29.8637C51.1205 23.1513 45.679 17.7097 38.9665 17.7097C32.254 17.7097 26.8125 23.1513 26.8125 29.8637C26.8125 36.5762 32.254 42.0178 38.9665 42.0178Z" fill="#007DC1"/>
<path d="M71.3773 42.0178C71.3832 40.3246 70.9343 38.661 70.0775 37.2007C69.2206 35.7404 67.9873 34.537 66.5064 33.7163C65.0255 32.8956 63.3514 32.4877 61.6589 32.5352C59.9665 32.5827 58.3179 33.0839 56.8853 33.9864C55.4528 34.8889 54.2889 36.1596 53.5154 37.6657C52.7418 39.1717 52.387 40.8579 52.4879 42.548C52.5888 44.2381 53.1418 45.8701 54.089 47.2734C55.0363 48.6768 56.3431 49.7999 57.8728 50.5256V64.9753L61.9241 69.0267L68.6764 62.2745L64.625 58.2231L68.6764 54.1718L65.3273 50.8227C67.106 50.1363 68.6356 48.9281 69.7153 47.3568C70.795 45.7854 71.3744 43.9243 71.3773 42.0178ZM61.9241 42.0178C61.39 42.0178 60.8678 41.8593 60.4236 41.5626C59.9794 41.2658 59.6333 40.844 59.4288 40.3504C59.2244 39.8569 59.1709 39.3139 59.2751 38.7899C59.3794 38.266 59.6366 37.7848 60.0143 37.407C60.392 37.0293 60.8733 36.7721 61.3972 36.6679C61.9211 36.5636 62.4642 36.6171 62.9577 36.8216C63.4512 37.026 63.8731 37.3722 64.1699 37.8163C64.4666 38.2605 64.625 38.7827 64.625 39.3169C64.625 40.0332 64.3405 40.7202 63.834 41.2267C63.3274 41.7332 62.6405 42.0178 61.9241 42.0178Z" fill="#007DC1"/>
<path d="M49.6081 47.4736C47.534 46.5488 45.2887 46.0703 43.0179 46.0691H34.9152C30.6173 46.0691 26.4954 47.7764 23.4563 50.8155C20.4172 53.8546 18.7098 57.9765 18.7098 62.2744V67.6762H53.8214V52.7943C52 51.395 50.5526 49.5673 49.6081 47.4736Z" fill="#007DC1"/>
</svg>
