<svg version="1.0" xmlns="http://www.w3.org/2000/svg" viewBox="0 0 140.00 140.00" preserveAspectRatio="xMidYMid meet">
  <rect width="100%" height="100%" fill="#D5222F" />
  <g transform="translate(45.0,32.0) scale(1.5)" fill="#000000" stroke="none">
    <path d="M27.2859 38.2874H27.0356H3.45797H3.20797V38.0374V10.7944V10.5444H3.45797H27.0356H27.2856V10.7944V13.4282V13.6782H27.0356H14.8462C14.454 13.6782 14.0778 13.834 13.8004 14.1114C13.5231 14.3888 13.3672 14.7649 13.3672 15.1572V32.0609C13.3672 32.4532 13.5231 32.8293 13.8004 33.1067C14.0778 33.3841 14.454 33.5399 14.8462 33.5399H18.0621H18.1546L18.2248 33.6001L21.7747 36.6428L27.2859 38.2874ZM27.2859 38.2874L27.2856 38.0371M27.2859 38.2874L27.2856 38.0371M27.2856 38.0371L27.2798 33.7895L27.2795 33.5399H27.0298H26.9088H26.8052L26.732 33.6131L23.7812 36.5639L23.958 36.7407M27.2856 38.0371L23.958 36.7407M23.958 36.7407L23.7812 36.5639C23.518 36.8271 23.1653 36.9814 22.7934 36.9961C22.4216 37.0107 22.058 36.8846 21.775 36.6431L23.958 36.7407ZM37.792 30.5819H37.542H26.1943C25.8022 30.5823 25.4263 30.7383 25.1492 31.0158L25.1491 31.0159L22.8438 33.3212L22.6801 33.4848L22.5043 33.3342L19.6862 30.9195L37.792 30.5819ZM37.792 30.5819V30.3319M37.792 30.5819V30.3319M37.792 30.3319V16.8862V16.6362H37.542H16.5752H16.3252V16.8862V30.3146V30.5646H16.5752H18.6961V30.5647M37.792 30.3319L18.6961 30.5647M18.6961 30.5647L18.7002 30.5646M18.6961 30.5647L18.7002 30.5646M18.7002 30.5646C19.0611 30.5586 19.4118 30.6848 19.6861 30.9194L18.7002 30.5646ZM30.4935 33.5399H30.2435V33.7899V48.4113C30.2435 49.5678 29.7841 50.677 28.9663 51.4948C28.1486 52.3125 27.0394 52.772 25.8829 52.772H4.61063C3.45412 52.772 2.34497 52.3125 1.5272 51.4948C0.709422 50.677 0.25 49.5678 0.25 48.4113V4.61038C0.25 3.45387 0.709422 2.34473 1.5272 1.52695C2.34497 0.709178 3.45412 0.249756 4.61063 0.249756H25.8829C27.0394 0.249756 28.1486 0.709178 28.9663 1.52695C29.7841 2.34473 30.2435 3.45387 30.2435 4.61038V13.4282V13.6782H30.4935H39.271C39.6633 13.6782 40.0395 13.834 40.3168 14.1114C40.5942 14.3888 40.75 14.7649 40.75 15.1572V32.0609C40.75 32.4532 40.5942 32.8293 40.3168 33.1067C40.0395 33.3841 39.6633 33.5399 39.271 33.5399H30.4935ZM27.0356 7.58642H27.2856V7.33642V4.61038C27.2856 4.23838 27.1378 3.8816 26.8747 3.61856C26.6117 3.35551 26.2549 3.20773 25.8829 3.20773H4.61063C4.23862 3.20773 3.88185 3.35551 3.6188 3.61855C3.35575 3.8816 3.20797 4.23837 3.20797 4.61038V7.33642V7.58642H3.45797H27.0356ZM3.45797 41.2454H3.20797V41.4954V48.4113C3.20797 48.7833 3.35575 49.1401 3.6188 49.4032C3.88185 49.6662 4.23862 49.814 4.61063 49.814H25.8829C26.2549 49.814 26.6117 49.6662 26.8747 49.4032C27.1378 49.1401 27.2856 48.7833 27.2856 48.4113V41.4954V41.2454H27.0356H3.45797Z" fill="#FFB500" stroke="#D5222F" stroke-width="0.5"/>
  </g>
</svg>
