<svg width="104" height="30" viewBox="0 0 104 30" fill="none" xmlns="http://www.w3.org/2000/svg">
<path d="M8.33017 28.7732H0.666664L11.0812 1.22685H18.9412L29.3557 28.7732H21.6922L19.9237 23.8542H10.0987L8.33017 28.7732ZM11.8672 18.7384H18.1552L15.0112 9.49074L11.8672 18.7384Z" fill="#1D1D21"/>
<path d="M41.9179 28.7732H34.8439V6.73611H26.5909V1.22685H50.1709V6.73611H41.9179V28.7732Z" fill="#1D1D21"/>
<path d="M60.0005 28.7732H52.9265V1.22685H60.0005V12.0486H63.5375L69.6683 1.22685H77.1353L69.4325 14.8032L77.096 28.7732H69.629L63.5375 17.5579H60.0005V28.7732Z" fill="#1D1D21"/>
<path d="M96.4022 8.7037C96.4022 7.12963 95.6162 6.34259 94.0442 6.34259H87.3632C85.7912 6.34259 85.0052 7.12963 85.0052 8.7037V21.2963C85.0052 22.8704 85.7912 23.6574 87.3632 23.6574H94.0442C95.6162 23.6574 96.4022 22.8704 96.4022 21.2963V8.7037ZM103.476 21.2963C103.476 24.0509 102.847 26.0579 101.59 27.3171C100.358 28.5502 98.3672 29.1667 95.6162 29.1667H85.7912C83.0402 29.1667 81.0359 28.5502 79.7783 27.3171C78.5469 26.0579 77.9312 24.0509 77.9312 21.2963V8.7037C77.9312 5.94907 78.5469 3.95525 79.7783 2.72222C81.0359 1.46296 83.0402 0.833333 85.7912 0.833333H95.6162C98.3672 0.833333 100.358 1.46296 101.59 2.72222C102.847 3.95525 103.476 5.94907 103.476 8.7037V21.2963Z" fill="#1D1D21"/>
</svg>
