<svg xmlns="http://www.w3.org/2000/svg" width="24" height="24" fill="none" viewBox="0 0 24 24">
  <g clip-path="url(#f8786c79b5ec51a9)">
    <path fill="#FBBB00" d="m5.319 14.503-.835 3.12-3.054.064A11.946 11.946 0 0 1 0 12c0-1.99.484-3.866 1.342-5.519l2.719.499 1.19 2.702A7.133 7.133 0 0 0 4.868 12c0 .88.16 1.725.452 2.503z"/>
    <path fill="#518EF8" d="M23.79 9.758a12.027 12.027 0 0 1-.053 4.747 11.998 11.998 0 0 1-4.225 6.853l-3.424-.175-.485-3.026a7.151 7.151 0 0 0 3.077-3.652h-6.416V9.758H23.79z"/>
    <path fill="#28B446" d="M19.512 21.358A11.95 11.95 0 0 1 12 24c-4.57 0-8.543-2.554-10.57-6.313l3.889-3.183a7.135 7.135 0 0 0 10.284 3.654l3.909 3.2z"/>
    <path fill="#F14336" d="m19.66 2.763-3.888 3.182a7.137 7.137 0 0 0-10.52 3.736l-3.91-3.2A11.998 11.998 0 0 1 12 0a11.95 11.95 0 0 1 7.66 2.763z"/>
  </g>
  <defs>
    <clipPath id="f8786c79b5ec51a9">
      <path fill="#fff" d="M0 0h24v24H0z"/>
    </clipPath>
  </defs>
</svg>
