<svg width="91" height="85" viewBox="0 0 91 85" fill="none" xmlns="http://www.w3.org/2000/svg">
<!-- TODO: title needs to be i18n/l10n-friendly -->
<title id="yubikeyDemo">yubikey</title>
<path fill-rule="evenodd" clip-rule="evenodd" d="M11.6199 62.9308C8.10518 59.416 8.10518 53.7176 11.6199 50.2028L14.4492 47.3735H17.2776L13.0341 51.617C10.3004 54.3507 10.3004 58.7829 13.0341 61.5165L30.7118 79.1942C33.4454 81.9279 37.8776 81.9279 40.6113 79.1942L82.5663 37.2392L76.0255 30.6985L61.5299 16.2028L54.9891 9.66204L25.7068 38.9443L24.2926 37.5301L54.282 7.54072L54.9891 6.83362L55.6962 7.54072L62.237 14.0815L68.7777 7.54072L69.4848 6.83362L70.1919 7.54072L84.6876 22.0364L85.3947 22.7435L84.6876 23.4506L78.1469 29.9914L84.6876 36.5321L85.3947 37.2392L84.6876 37.9463L42.0255 80.6084C38.5108 84.1231 32.8123 84.1231 29.2976 80.6084L11.6199 62.9308ZM76.7326 28.5772L82.5663 22.7435L69.4848 9.66204L63.6512 15.4957L76.7326 28.5772ZM54.1278 37.6716C58.033 41.5769 58.033 47.9085 54.1278 51.8137C50.2225 55.719 43.8909 55.719 39.9856 51.8137C36.0804 47.9085 36.0804 41.5769 39.9856 37.6716C43.8909 33.7664 50.2225 33.7664 54.1278 37.6716ZM55.542 36.2574C60.2283 40.9437 60.2283 48.5417 55.542 53.228C50.8557 57.9142 43.2577 57.9142 38.5714 53.228C33.8851 48.5417 33.8851 40.9437 38.5714 36.2574C43.2577 31.5711 50.8557 31.5711 55.542 36.2574Z" fill="#00297A" class="siwIconFillPrimaryDark"/>
<path fill-rule="evenodd" clip-rule="evenodd" d="M23.2759 45.3735L17.9067 50.7427L19.6767 52.5027L28.0567 44.1227L19.6767 35.7427L17.9067 37.5027L23.2776 42.8735H0.0371857V45.3735H23.2759Z" fill="#A7B5EC" class="siwIconFillSecondary"/>
</svg>
