<?xml version="1.0" encoding="UTF-8"?>
<!DOCTYPE svg PUBLIC "-//W3C//DTD SVG 1.1//EN" "http://www.w3.org/Graphics/SVG/1.1/DTD/svg11.dtd">
<svg version="1.1" xmlns="http://www.w3.org/2000/svg" xmlns:xlink="http://www.w3.org/1999/xlink" x="0" y="0" width="700" height="700" viewBox="0, 0, 700, 700">
  <g id="Layer_1-2">
    <path d="M382.6,18.11 L368.78,188.65 L368.8,188.67 C362.26,187.87 355.64,187.42 348.89,187.42 C340.49,187.42 332.22,188.06 324.16,189.29 L316.31,106.59 C316.07,104.01 318.11,101.75 320.72,101.79 L334.85,101.79 L328.04,18.12 C327.81,15.56 329.84,13.34 332.43,13.34 L378.21,13.34 C380.77,13.34 382.8,15.55 382.6,18.12 z M267.06,26.58 C266.38,24.1 263.72,22.72 261.3,23.61 L218.28,39.28 C215.86,40.16 214.71,42.93 215.78,45.27 L250.78,121.56 L237.49,126.36 C235.05,127.24 233.88,130.05 235.01,132.41 L270.67,207.44 C283.61,200.32 297.61,194.95 312.39,191.57 L267.06,26.59 z M161.4,74.07 L260.41,213.58 L260.43,213.6 C247.88,221.76 236.52,231.61 226.68,242.82 L167.46,184.48 C165.59,182.66 165.74,179.62 167.73,177.96 L178.56,168.9 L119.59,109.18 C117.79,107.36 117.93,104.36 119.9,102.7 L154.96,73.25 C156.95,71.59 159.9,71.98 161.4,74.07 z M78.34,154.83 C76.23,153.37 73.3,154.03 72,156.24 L49.12,195.9 C47.83,198.14 48.73,200.99 51.05,202.09 L126.89,238.04 L119.8,250.26 C118.49,252.52 119.41,255.41 121.79,256.49 L197.35,291.04 C202.82,276.99 210.14,263.89 219.08,252.06 L78.34,154.82 z M22.47,262.63 C22.92,260.09 25.42,258.47 27.92,259.12 L193.41,302.35 C189.12,316.33 186.73,331.12 186.4,346.44 L103.54,339.79 C100.94,339.58 99.09,337.18 99.54,334.62 L102.02,320.72 L18.47,312.89 C15.91,312.64 14.08,310.26 14.53,307.72 L22.46,262.62 z M16.22,374.39 C13.66,374.64 11.83,377.02 12.28,379.56 L20.24,424.66 C20.69,427.2 23.21,428.82 25.69,428.17 L106.89,406.95 L109.31,420.85 C109.76,423.41 112.32,425.03 114.83,424.34 L194.92,402.23 C190.2,388.35 187.29,373.67 186.51,358.39 L16.23,374.41 z M42.71,492.9 C41.42,490.66 42.3,487.81 44.64,486.7 L199.16,413.43 C205.04,427.29 212.82,440.15 222.12,451.72 L154.4,499.89 C152.29,501.41 149.31,500.75 148.02,498.5 L140.99,486.26 L71.95,533.98 C69.82,535.46 66.91,534.8 65.61,532.57 L42.71,492.91 z M229.93,460.77 L109.74,582.54 C107.94,584.36 108.08,587.36 110.05,589.02 L145.13,618.45 C147.1,620.11 150.07,619.72 151.57,617.63 L200.12,549.18 L210.93,558.29 C212.92,559.97 215.93,559.56 217.41,557.43 L264.55,489.04 C251.76,481.25 240.13,471.71 229.96,460.82 L229.94,460.78 z M206.19,656.3 C203.77,655.42 202.62,652.65 203.69,650.31 L203.71,650.31 L275,494.79 C288.12,501.5 302.27,506.5 317.16,509.45 L296.25,589.86 C295.59,592.38 292.91,593.8 290.47,592.9 L277.2,588.04 L254.97,668.98 C254.29,671.46 251.63,672.84 249.21,671.95 L206.19,656.3 z M328.96,511.32 L328.96,511.32 C328.96,511.32 328.94,511.32 328.94,511.32 L328.96,511.32 z M328.96,511.32 L315.14,681.87 C314.94,684.43 316.96,686.65 319.53,686.65 L365.31,686.65 C367.9,686.65 369.92,684.43 369.7,681.87 L362.89,598.2 L377.02,598.2 C379.62,598.24 381.67,595.98 381.43,593.4 L373.58,510.7 C365.52,511.93 357.26,512.56 348.85,512.56 C342.11,512.56 335.49,512.11 328.96,511.31 z M494.06,49.64 C495.13,47.3 493.98,44.53 491.56,43.65 L448.54,28 C446.12,27.12 443.46,28.49 442.78,30.97 L420.55,111.91 L407.28,107.05 C404.84,106.15 402.15,107.56 401.5,110.08 L380.59,190.49 C395.48,193.44 409.62,198.45 422.75,205.15 L494.06,49.63 z M588.01,117.42 L467.82,239.19 L467.8,239.15 C457.63,228.26 446.01,218.73 433.21,210.93 L480.35,142.54 C481.83,140.41 484.84,140 486.83,141.68 L497.64,150.78 L546.19,82.33 C547.69,80.24 550.66,79.85 552.63,81.51 L587.71,110.94 C589.68,112.6 589.82,115.6 588.02,117.42 z M653.11,213.25 C655.45,212.14 656.33,209.29 655.04,207.06 L632.14,167.4 C630.85,165.16 627.94,164.51 625.8,165.98 L556.76,213.7 L549.73,201.46 C548.44,199.2 545.47,198.55 543.35,200.07 L475.63,248.24 C484.94,259.81 492.71,272.66 498.6,286.53 L653.11,213.26 z M677.49,275.32 L685.45,320.42 L685.47,320.44 C685.92,322.98 684.1,325.36 681.53,325.61 L511.23,341.61 C510.45,326.33 507.54,311.65 502.83,297.77 L582.92,275.66 C585.42,274.96 587.98,276.58 588.44,279.15 L590.86,293.05 L672.06,271.83 C674.54,271.17 677.06,272.79 677.51,275.34 z M669.8,440.83 C672.3,441.49 674.8,439.87 675.25,437.32 L683.19,392.23 C683.64,389.69 681.82,387.31 679.25,387.06 L595.7,379.23 L598.18,365.33 C598.63,362.77 596.79,360.37 594.18,360.16 L511.33,353.51 C511,368.83 508.58,383.62 504.32,397.6 L669.81,440.81 L669.81,440.83 z M625.72,543.71 C624.43,545.93 621.5,546.58 619.39,545.12 L619.41,545.1 L478.65,447.88 C487.59,436.05 494.91,422.95 500.38,408.9 L575.94,443.46 C578.32,444.55 579.24,447.44 577.93,449.69 L570.83,461.91 L646.68,497.86 C649,498.97 649.9,501.82 648.61,504.05 L625.73,543.71 z M437.31,486.37 L536.32,625.9 C537.82,627.99 540.77,628.38 542.76,626.72 L577.82,597.27 C579.79,595.61 579.93,592.61 578.13,590.79 L519.16,531.08 L529.99,522.02 C531.98,520.36 532.12,517.32 530.26,515.5 L471.05,457.16 C461.21,468.38 449.85,478.22 437.3,486.38 L437.32,486.38 z M436.45,676.35 C434.03,677.23 431.36,675.86 430.69,673.38 L385.36,508.4 C400.14,505.02 414.15,499.64 427.09,492.53 L462.74,567.56 C463.87,569.92 462.7,572.73 460.26,573.61 L446.97,578.41 L481.97,654.7 C483.04,657.04 481.89,659.81 479.47,660.69 L436.45,676.36 z" fill="#000000"/>
  </g>
</svg>
